<svg width="30" height="31" viewBox="0 0 30 31" fill="none" xmlns="http://www.w3.org/2000/svg">
<path d="M29.8204 12.473C29.768 11.8748 29.6623 11.2824 29.5047 10.703C29.4186 10.3812 29.3325 10.1283 29.2578 9.85823C29.1832 9.58813 29.1602 9.53641 29.1315 9.39848C29.0454 9.06517 28.9708 8.6629 28.5575 8.6514C28.4478 8.65141 28.3404 8.61993 28.2479 8.56069C28.1555 8.50145 28.082 8.41693 28.0361 8.31715C27.9902 8.21736 27.9738 8.1065 27.9889 7.99769C28.004 7.88887 28.0499 7.78667 28.1213 7.70318C28.2246 7.60549 28.1729 7.47331 28.0352 7.40435C27.8974 7.33539 27.9548 7.01931 27.7998 7.01931C27.6448 7.01931 27.4554 7.01931 27.3176 6.80094C27.2695 6.72117 27.2441 6.62976 27.2441 6.53658C27.2441 6.44341 27.2695 6.352 27.3176 6.27223C27.3806 6.17779 27.4142 6.06681 27.4142 5.95328C27.4142 5.83976 27.3806 5.72878 27.3176 5.63434C27.2086 5.49641 26.9445 5.54239 26.6116 5.63434C26.475 5.66277 26.3332 5.65315 26.2016 5.60654C26.07 5.55994 25.9537 5.47812 25.8654 5.36999C25.7916 5.26608 25.7492 5.14318 25.7431 5.01586C25.737 4.88854 25.7675 4.76214 25.8309 4.65164C25.9974 4.28959 25.8309 4.12868 25.5611 4.22063C25.4815 4.25632 25.392 4.26382 25.3075 4.24189C25.223 4.21996 25.1485 4.1699 25.0962 4.09995C24.9756 3.95628 25.0675 3.68617 25.0962 3.40458C25.1249 3.12299 24.8608 3.00805 24.6025 3.00231C24.3442 2.99656 24.2122 3.28964 23.8391 3.18046C23.7738 3.15913 23.7138 3.12426 23.6629 3.07812C23.612 3.03198 23.5714 2.9756 23.5438 2.91268C23.5162 2.84976 23.5021 2.78171 23.5025 2.71298C23.503 2.64425 23.5179 2.57639 23.5463 2.51383C23.5824 2.41615 23.5792 2.30826 23.5375 2.21287C23.4957 2.11748 23.4186 2.04202 23.3225 2.00237C23.0814 1.88168 22.9436 2.00237 22.5877 2.06558C22.2318 2.1288 22.1687 1.62307 21.698 1.74376C20.9116 1.98512 20.791 1.82421 20.5499 1.6633C20.43 1.60334 20.3304 1.50908 20.264 1.39245C20.1976 1.27582 20.1673 1.14208 20.1768 1.00817C20.1828 0.916414 20.1647 0.82469 20.1245 0.74205C20.0842 0.659409 20.0231 0.588709 19.9472 0.536932C19.7061 0.393262 19.62 0.456477 19.3273 0.536932C18.9939 0.576858 18.6564 0.510494 18.3629 0.347287C18.1103 0.226604 17.5765 0.295568 17.2895 0.151898C16.9626 0.0104188 16.6018 -0.0334855 16.2505 0.0254676C15.887 0.0791828 15.5176 0.0791828 15.1541 0.0254676C14.7179 -0.0262535 13.7248 0.151898 13.5124 0.11167C13.3001 0.0714428 13.0877 0.203617 12.9384 0.186377C12.7892 0.169137 12.7892 0.232351 12.5768 0.243844C12.2846 0.277808 11.9963 0.339382 11.7158 0.427741C11.5746 0.463668 11.4305 0.486751 11.2852 0.496704C11.1403 0.555727 10.9905 0.601878 10.8375 0.634626C10.7342 0.634626 10.562 0.761056 10.4701 0.761056C10.3051 0.790125 10.1435 0.836353 9.98796 0.898982C9.85446 0.974492 9.71644 1.04167 9.57466 1.10012C9.26469 1.14609 9.39098 1.21505 9.12119 1.27827C8.84145 1.37061 8.57211 1.49195 8.31756 1.64031C8.09943 1.71502 7.74354 1.81272 7.77798 2.0311C7.79373 2.13667 7.77754 2.24454 7.7315 2.34082C7.68546 2.4371 7.61169 2.51737 7.51967 2.5713C7.19248 2.69198 7.15804 2.5713 7.00879 2.49659C6.85955 2.42188 6.739 2.32418 6.52087 2.46785C6.30274 2.61152 6.42329 2.80117 6.17072 2.96208C5.90799 3.12462 5.66523 3.3175 5.44745 3.53676C5.1834 3.81835 5.14896 3.92754 5.22932 4.20913C5.28257 4.40402 5.29165 4.60836 5.2559 4.80722C5.22015 5.00607 5.14047 5.19442 5.02268 5.35849C4.91985 5.55616 4.77334 5.72775 4.59429 5.8602C4.41525 5.99265 4.20838 6.08246 3.98944 6.12281C3.63355 6.1573 3.59337 6.12281 3.41542 6.42165C3.35219 6.56368 3.25246 6.68638 3.12641 6.77724C3.00036 6.8681 2.8525 6.92387 2.6979 6.93886C2.33626 7.00207 2.12387 7.38711 1.98037 7.71467C1.83686 8.04224 1.71058 8.13419 1.49245 8.17442C1.27432 8.21465 0.987315 8.24338 0.918432 8.5652C0.879238 8.68989 0.878542 8.82351 0.916435 8.9486C0.954329 9.07369 1.02905 9.18442 1.13082 9.26631C1.23988 9.34102 0.878249 9.67433 1.1997 9.80076C1.2787 9.83261 1.34964 9.88167 1.40736 9.94437C1.46508 10.0071 1.50813 10.0818 1.53341 10.1633C1.55869 10.2447 1.56556 10.3307 1.55351 10.4151C1.54146 10.4995 1.5108 10.5802 1.46375 10.6513C1.41944 10.7712 1.34191 10.876 1.24024 10.9533C1.13857 11.0307 1.01698 11.0774 0.889729 11.088C0.757705 11.088 0.493654 11.0536 0.453472 11.2777C0.159051 12.4992 0.00688304 13.7508 0 15.0074C-1.15979e-06 19.0047 1.58534 22.8385 4.40759 25.6662C7.22983 28.4938 11.058 30.0839 15.0508 30.0869C16.1361 30.089 17.2181 29.9695 18.2768 29.7306L18.3974 29.7019C18.7131 29.6272 19.023 29.5525 19.3273 29.4605C19.5071 29.4069 19.6851 29.3494 19.8611 29.2881L20.1768 29.1789C20.4179 29.0985 20.659 29.0008 20.8944 28.8973L21.0723 28.8169L21.4397 28.6502L21.9104 28.4204L22.0022 28.3744L22.4212 28.1445L22.9953 27.8055L23.5693 27.4377C24.0432 27.117 24.4957 26.7657 24.924 26.386C25.0675 26.2596 25.211 26.1331 25.3487 26.001L25.6587 25.6964C25.762 25.5929 25.8596 25.4952 25.9515 25.3918C26.1466 25.1849 26.3361 24.9723 26.5255 24.7539C26.7149 24.5355 26.8814 24.3229 27.0421 24.1045C27.1282 23.9953 27.2086 23.8804 27.2889 23.7655L27.6793 23.1908C27.8221 22.985 27.9543 22.7721 28.0753 22.5529C28.1385 22.4437 28.2016 22.3345 28.259 22.2253C28.3164 22.1161 28.3968 21.9782 28.4542 21.8518C28.5116 21.7254 28.5977 21.5702 28.6609 21.4208C28.7403 21.2725 28.8093 21.1189 28.8675 20.961C28.892 20.9147 28.9131 20.8667 28.9306 20.8174C28.9575 20.7702 28.9787 20.7201 28.9938 20.6679C29.0569 20.5185 29.1143 20.3691 29.1717 20.2082C29.2291 20.0473 29.2808 19.9036 29.3325 19.7485C29.3841 19.5933 29.476 19.2887 29.5391 19.0531C29.6367 18.7313 29.717 18.4095 29.7859 18.0819C29.7859 18.0417 29.7859 18.0014 29.7859 17.9612C29.7865 17.9516 29.7865 17.942 29.7859 17.9325C29.8204 17.7716 29.8491 17.6164 29.872 17.4555C29.895 17.2946 29.9352 17.059 29.9581 16.8808C30.0439 15.4104 29.9978 13.9352 29.8204 12.473ZM2.3133 10.5478C2.28243 10.549 2.25192 10.5409 2.22569 10.5245C2.19946 10.5082 2.1787 10.4844 2.16609 10.4562C2.15347 10.4279 2.14957 10.3966 2.15489 10.3661C2.1602 10.3356 2.17449 10.3074 2.19592 10.2852C2.21735 10.2629 2.24494 10.2475 2.27515 10.2411C2.30536 10.2346 2.33681 10.2373 2.36547 10.2489C2.39413 10.2604 2.41868 10.2803 2.43597 10.3059C2.45327 10.3315 2.46252 10.3618 2.46254 10.3927C2.46332 10.4128 2.46003 10.4328 2.45287 10.4516C2.44572 10.4704 2.43485 10.4876 2.42092 10.5021C2.40698 10.5166 2.39026 10.5281 2.37177 10.5359C2.35328 10.5438 2.33339 10.5479 2.3133 10.5478ZM2.3707 9.5594C2.33027 9.56016 2.29009 9.55285 2.25252 9.53788C2.21494 9.52292 2.18072 9.5006 2.15186 9.47224C2.123 9.44388 2.10008 9.41005 2.08443 9.37272C2.06878 9.33538 2.06072 9.2953 2.06073 9.25481C2.0709 9.1805 2.10762 9.1124 2.16407 9.06309C2.22053 9.01379 2.29292 8.98662 2.36784 8.98662C2.44275 8.98662 2.51513 9.01379 2.57159 9.06309C2.62805 9.1124 2.66476 9.1805 2.67493 9.25481C2.67648 9.29577 2.66975 9.33661 2.65516 9.3749C2.64056 9.41319 2.6184 9.44814 2.58999 9.47765C2.56158 9.50716 2.52752 9.53064 2.48984 9.54666C2.45216 9.56268 2.41164 9.57092 2.3707 9.57089V9.5594ZM3.12267 7.3124C3.12267 7.23162 3.15472 7.15415 3.21178 7.09703C3.26883 7.03991 3.34621 7.00782 3.4269 7.00782C3.50812 7.00781 3.58611 7.03971 3.64408 7.09667C3.70205 7.15363 3.73537 7.2311 3.73687 7.3124C3.73688 7.39524 3.70441 7.47478 3.64644 7.53389C3.58847 7.593 3.50963 7.62697 3.4269 7.62848C3.38619 7.62773 3.34603 7.61896 3.30871 7.60267C3.27139 7.58638 3.23763 7.56289 3.20938 7.53353C3.18113 7.50418 3.15893 7.46955 3.14405 7.4316C3.12918 7.39366 3.12191 7.35315 3.12267 7.3124ZM3.61059 8.41578C3.55524 8.4158 3.50207 8.39419 3.4624 8.35555C3.42273 8.31691 3.3997 8.26429 3.3982 8.2089C3.3982 8.1525 3.42058 8.09842 3.46041 8.05855C3.50024 8.01867 3.55426 7.99627 3.61059 7.99627C3.66691 7.99627 3.72094 8.01867 3.76077 8.05855C3.8006 8.09842 3.82298 8.1525 3.82298 8.2089C3.82298 8.26529 3.8006 8.31938 3.76077 8.35925C3.72094 8.39913 3.66691 8.42153 3.61059 8.42153V8.41578ZM26.8182 7.19172C26.8609 7.19172 26.9018 7.20867 26.9319 7.23885C26.962 7.26902 26.979 7.30995 26.979 7.35263C26.979 7.39585 26.9622 7.43739 26.9323 7.46849C26.9023 7.49958 26.8614 7.51779 26.8182 7.51928C26.7756 7.51645 26.7355 7.49782 26.7057 7.46701C26.676 7.4362 26.6588 7.39543 26.6575 7.35263C26.6589 7.31041 26.6763 7.27031 26.7062 7.24043C26.736 7.21056 26.7761 7.19315 26.8182 7.19172ZM26.5657 8.51348C26.6037 8.5126 26.6414 8.5212 26.6753 8.53851C26.7092 8.55581 26.7382 8.58128 26.7599 8.61262C26.7815 8.64397 26.795 8.6802 26.7992 8.71807C26.8034 8.75593 26.7981 8.79424 26.7838 8.82955C26.7651 8.87194 26.7345 8.90803 26.6958 8.93351C26.6572 8.95899 26.612 8.97277 26.5657 8.97322C26.5355 8.97322 26.5057 8.96728 26.4778 8.95572C26.45 8.94417 26.4246 8.92724 26.4033 8.9059C26.382 8.88455 26.3651 8.85921 26.3535 8.83132C26.342 8.80343 26.3361 8.77354 26.3361 8.74335C26.3353 8.71295 26.3407 8.6827 26.3519 8.65446C26.3632 8.62621 26.3801 8.60055 26.4016 8.57905C26.423 8.55754 26.4487 8.54064 26.4769 8.52937C26.5051 8.51809 26.5353 8.51269 26.5657 8.51348ZM26.2901 6.0711C26.3034 6.07031 26.3167 6.07226 26.3293 6.07681C26.3418 6.08137 26.3532 6.08844 26.3629 6.09759C26.3726 6.10675 26.3803 6.11778 26.3855 6.13003C26.3908 6.14227 26.3935 6.15546 26.3935 6.16879C26.3935 6.19622 26.3826 6.22254 26.3632 6.24194C26.3438 6.26133 26.3175 6.27223 26.2901 6.27223C26.2627 6.27223 26.2365 6.26133 26.2171 6.24194C26.1977 6.22254 26.1868 6.19622 26.1868 6.16879C26.1868 6.15546 26.1895 6.14227 26.1948 6.13003C26.2 6.11778 26.2077 6.10675 26.2174 6.09759C26.2271 6.08844 26.2385 6.08137 26.251 6.07681C26.2635 6.07226 26.2769 6.07031 26.2901 6.0711ZM24.9814 5.23206C25.0078 5.23202 25.0333 5.24213 25.0525 5.2603C25.0717 5.27847 25.0832 5.30333 25.0847 5.32976C25.0847 5.35719 25.0738 5.3835 25.0544 5.4029C25.0351 5.4223 25.0088 5.4332 24.9814 5.4332C24.954 5.4332 24.9277 5.4223 24.9083 5.4029C24.8889 5.3835 24.8781 5.35719 24.8781 5.32976C24.8795 5.30333 24.8911 5.27847 24.9103 5.2603C24.9295 5.24213 24.9549 5.23202 24.9814 5.23206ZM25.1306 6.74921C25.2047 6.74922 25.277 6.77128 25.3385 6.81259C25.4 6.85389 25.4478 6.91258 25.4758 6.98117C25.5039 7.04976 25.511 7.12516 25.4961 7.19777C25.4812 7.27038 25.4451 7.33693 25.3924 7.38893C25.3396 7.44094 25.2726 7.47605 25.1998 7.48981C25.1271 7.50357 25.0519 7.49534 24.9838 7.46618C24.9157 7.43703 24.8579 7.38826 24.8176 7.32608C24.7773 7.2639 24.7564 7.19112 24.7575 7.11701C24.7574 7.0662 24.7677 7.0159 24.7879 6.96929C24.8082 6.92269 24.8378 6.88078 24.8751 6.84623C24.9123 6.81167 24.9562 6.78521 25.0042 6.76851C25.0521 6.75182 25.103 6.74524 25.1536 6.74921H25.1306ZM24.5222 3.69192C24.5456 3.69187 24.5681 3.70077 24.5852 3.71679C24.6022 3.73281 24.6125 3.75475 24.614 3.77812C24.614 3.7902 24.6116 3.80216 24.607 3.81331C24.6024 3.82447 24.5956 3.8346 24.5871 3.84314C24.5786 3.85168 24.5684 3.85845 24.5573 3.86307C24.5462 3.86769 24.5342 3.87007 24.5222 3.87007C24.5101 3.87007 24.4982 3.86769 24.487 3.86307C24.4759 3.85845 24.4657 3.85168 24.4572 3.84314C24.4487 3.8346 24.4419 3.82447 24.4373 3.81331C24.4327 3.80216 24.4303 3.7902 24.4303 3.77812C24.4307 3.76433 24.4343 3.75081 24.4406 3.73857C24.447 3.72632 24.456 3.71566 24.467 3.70738C24.478 3.6991 24.4908 3.69341 24.5043 3.69074C24.5178 3.68806 24.5318 3.68846 24.5451 3.69192H24.5222ZM24.4246 4.2666C24.4857 4.25955 24.5476 4.26551 24.6062 4.2841C24.6649 4.30268 24.7189 4.33348 24.7648 4.37445C24.8107 4.41542 24.8475 4.46565 24.8726 4.52184C24.8978 4.57802 24.9108 4.63891 24.9108 4.70048C24.9108 4.76206 24.8978 4.82294 24.8726 4.87913C24.8475 4.93532 24.8107 4.98555 24.7648 5.02652C24.7189 5.06749 24.6649 5.09828 24.6062 5.11687C24.5476 5.13545 24.4857 5.14142 24.4246 5.13437C24.3182 5.12209 24.2201 5.0711 24.1489 4.99109C24.0776 4.91109 24.0383 4.80766 24.0383 4.70048C24.0383 4.59331 24.0776 4.48987 24.1489 4.40987C24.2201 4.32986 24.3182 4.27887 24.4246 4.2666ZM24.4246 5.89294C24.4165 5.94117 24.3915 5.98497 24.3542 6.01655C24.3169 6.04814 24.2697 6.06547 24.2208 6.06547C24.1719 6.06547 24.1247 6.04814 24.0874 6.01655C24.0501 5.98497 24.0251 5.94117 24.017 5.89294C24.012 5.86328 24.0136 5.8329 24.0215 5.80389C24.0294 5.77488 24.0436 5.74796 24.063 5.72499C24.0824 5.70203 24.1066 5.68357 24.1338 5.67091C24.1611 5.65825 24.1908 5.6517 24.2208 5.6517C24.2508 5.6517 24.2805 5.65825 24.3078 5.67091C24.335 5.68357 24.3592 5.70203 24.3786 5.72499C24.398 5.74796 24.4121 5.77488 24.4201 5.80389C24.428 5.8329 24.4296 5.86328 24.4246 5.89294ZM23.8333 7.47906C23.8527 7.459 23.8759 7.44306 23.9015 7.43219C23.9272 7.42133 23.9547 7.41577 23.9826 7.41584C24.0155 7.41494 24.0483 7.42175 24.0782 7.43571C24.1081 7.44968 24.1343 7.47042 24.1548 7.4963C24.1896 7.53817 24.2079 7.59128 24.2064 7.64572C24.2064 7.70516 24.1829 7.76216 24.1409 7.8042C24.0989 7.84623 24.042 7.86984 23.9826 7.86984C23.9232 7.86984 23.8663 7.84623 23.8243 7.8042C23.7823 7.76216 23.7587 7.70516 23.7587 7.64572C23.7584 7.61419 23.7649 7.58297 23.7778 7.5542C23.7907 7.52543 23.8096 7.4998 23.8333 7.47906ZM23.3626 6.99632C23.3634 7.01642 23.3601 7.03648 23.353 7.05527C23.3458 7.07407 23.3349 7.09123 23.321 7.10572C23.3071 7.12021 23.2904 7.13173 23.2719 7.13959C23.2534 7.14746 23.2335 7.15151 23.2134 7.15149C23.1909 7.15588 23.1678 7.15523 23.1456 7.14961C23.1235 7.14399 23.1028 7.13352 23.0852 7.11897C23.0675 7.10441 23.0533 7.08612 23.0435 7.06541C23.0338 7.04471 23.0287 7.0221 23.0287 6.9992C23.0287 6.97631 23.0338 6.95369 23.0435 6.93299C23.0533 6.91228 23.0675 6.89399 23.0852 6.87944C23.1028 6.86488 23.1235 6.85441 23.1456 6.84879C23.1678 6.84316 23.1909 6.84253 23.2134 6.84691C23.251 6.84981 23.286 6.86683 23.3116 6.89454C23.3371 6.92225 23.3513 6.95861 23.3512 6.99632H23.3626ZM22.6279 3.35286C22.7414 3.35286 22.8524 3.38657 22.9468 3.44971C23.0412 3.51286 23.1148 3.60261 23.1582 3.70762C23.2017 3.81263 23.213 3.92818 23.1909 4.03965C23.1687 4.15113 23.1141 4.25353 23.0338 4.3339C22.9535 4.41427 22.8512 4.469 22.7399 4.49117C22.6285 4.51335 22.5131 4.50197 22.4082 4.45848C22.3033 4.41498 22.2137 4.34132 22.1506 4.24682C22.0875 4.15231 22.0539 4.0412 22.0539 3.92754C22.0538 3.7771 22.1127 3.63264 22.2179 3.52519C22.3231 3.41774 22.4662 3.35587 22.6164 3.35286H22.6279ZM22.7542 5.72054C22.7542 5.74798 22.7433 5.77428 22.7239 5.79368C22.7045 5.81308 22.6783 5.82398 22.6509 5.82398C22.6234 5.82398 22.5972 5.81308 22.5778 5.79368C22.5584 5.77428 22.5475 5.74798 22.5475 5.72054C22.5475 5.69311 22.5584 5.66679 22.5778 5.64739C22.5972 5.628 22.6234 5.6171 22.6509 5.6171C22.6762 5.61994 22.6996 5.63207 22.7166 5.65117C22.7336 5.67027 22.7429 5.69499 22.7427 5.72054H22.7542ZM22.0022 2.54831C22.0281 2.54831 22.0529 2.5586 22.0712 2.57692C22.0895 2.59524 22.0998 2.62009 22.0998 2.646C22.0998 2.67191 22.0895 2.69676 22.0712 2.71508C22.0529 2.73341 22.0281 2.7437 22.0022 2.7437C21.9763 2.7437 21.9515 2.73341 21.9332 2.71508C21.9149 2.69676 21.9046 2.67191 21.9046 2.646C21.9046 2.62009 21.9149 2.59524 21.9332 2.57692C21.9515 2.5586 21.9763 2.54831 22.0022 2.54831ZM18.8221 0.824271C18.8535 0.823505 18.8847 0.829032 18.914 0.840529C18.9432 0.852026 18.9698 0.869262 18.9923 0.891218C19.0147 0.913174 19.0326 0.939408 19.0448 0.968375C19.057 0.997343 19.0632 1.02846 19.0632 1.05989C19.0632 1.12391 19.0378 1.1853 18.9926 1.23056C18.9474 1.27583 18.8861 1.30126 18.8221 1.30126C18.7907 1.30127 18.7597 1.29499 18.7307 1.28279C18.7018 1.27059 18.6756 1.25272 18.6537 1.23022C18.6317 1.20773 18.6145 1.18108 18.603 1.15183C18.5915 1.12257 18.586 1.09131 18.5868 1.05989C18.5882 1.00034 18.612 0.943526 18.6536 0.900877C18.6951 0.858227 18.7512 0.832909 18.8107 0.830019L18.8221 0.824271ZM17.5134 0.249592C17.5469 0.249592 17.579 0.262913 17.6027 0.286623C17.6264 0.310333 17.6397 0.342491 17.6397 0.376022C17.6397 0.409553 17.6264 0.441711 17.6027 0.465421C17.579 0.489131 17.5469 0.502452 17.5134 0.502452C17.4799 0.502452 17.4478 0.489131 17.4241 0.465421C17.4004 0.441711 17.3871 0.409553 17.3871 0.376022C17.3939 0.347114 17.4112 0.321749 17.4355 0.304784C17.4599 0.287818 17.4897 0.280441 17.5191 0.284072L17.5134 0.249592ZM11.1991 0.761056C11.2372 0.761056 11.2737 0.776195 11.3006 0.803138C11.3275 0.830082 11.3426 0.866623 11.3426 0.904726C11.3426 0.94283 11.3275 0.979375 11.3006 1.00632C11.2737 1.03326 11.2372 1.0484 11.1991 1.0484C11.1611 1.0484 11.1246 1.03326 11.0977 1.00632C11.0708 0.979375 11.0556 0.94283 11.0556 0.904726C11.0556 0.866623 11.0708 0.830082 11.0977 0.803138C11.1246 0.776195 11.1611 0.761056 11.1991 0.761056ZM9.87889 1.87019C9.92544 1.87019 9.97094 1.88401 10.0096 1.9099C10.0483 1.93579 10.0785 1.97258 10.0963 2.01564C10.1141 2.05869 10.1188 2.10607 10.1097 2.15177C10.1006 2.19748 10.0782 2.23946 10.0453 2.27241C10.0124 2.30536 9.97046 2.32781 9.92481 2.3369C9.87916 2.34599 9.83183 2.34133 9.78883 2.32349C9.74582 2.30566 9.70907 2.27546 9.68321 2.23671C9.65735 2.19796 9.64354 2.15241 9.64354 2.10581C9.65009 2.0528 9.67487 2.00373 9.71363 1.96702C9.75239 1.93032 9.8027 1.90827 9.85593 1.90467L9.87889 1.87019ZM6.11332 3.72065C6.21684 3.72065 6.31612 3.76183 6.38933 3.83511C6.46253 3.9084 6.50365 4.0078 6.50365 4.11144C6.50365 4.21508 6.46253 4.31448 6.38933 4.38776C6.31612 4.46105 6.21684 4.50222 6.11332 4.50222C6.00979 4.50222 5.91051 4.46105 5.83731 4.38776C5.76411 4.31448 5.72298 4.21508 5.72298 4.11144C5.72298 4.0078 5.76411 3.9084 5.83731 3.83511C5.91051 3.76183 6.00979 3.72065 6.11332 3.72065ZM6.34293 5.5194C6.34293 5.566 6.32912 5.61155 6.30326 5.6503C6.2774 5.68905 6.24065 5.71925 6.19764 5.73708C6.15464 5.75492 6.10732 5.75958 6.06167 5.75049C6.01601 5.7414 5.97407 5.71896 5.94116 5.68601C5.90825 5.65306 5.88583 5.61107 5.87675 5.56537C5.86767 5.51966 5.87233 5.47229 5.89014 5.42923C5.90796 5.38618 5.93812 5.34938 5.97683 5.32349C6.01553 5.2976 6.06103 5.28378 6.10758 5.28378C6.13908 5.28662 6.16969 5.29579 6.19758 5.31073C6.22546 5.32568 6.25005 5.3461 6.26988 5.37078C6.2897 5.39546 6.30436 5.42388 6.31296 5.45435C6.32157 5.48482 6.32395 5.51672 6.31996 5.54814L6.34293 5.5194ZM5.88371 6.34694C5.97767 6.34618 6.07084 6.36405 6.15786 6.39953C6.24488 6.435 6.32403 6.48737 6.39073 6.55361C6.45744 6.61986 6.51038 6.69867 6.54651 6.78551C6.58264 6.87234 6.60124 6.96547 6.60124 7.05954C6.61014 7.15889 6.59828 7.259 6.56641 7.35351C6.53454 7.44801 6.48336 7.53484 6.41613 7.60845C6.3489 7.68207 6.2671 7.74086 6.17592 7.78108C6.08475 7.8213 5.98621 7.84208 5.88658 7.84208C5.78695 7.84208 5.68841 7.8213 5.59724 7.78108C5.50606 7.74086 5.42426 7.68207 5.35703 7.60845C5.2898 7.53484 5.23862 7.44801 5.20675 7.35351C5.17488 7.259 5.16302 7.15889 5.17192 7.05954C5.1805 6.88049 5.25616 6.71126 5.38383 6.58558C5.5115 6.45989 5.68179 6.38699 5.86075 6.38142L5.88371 6.34694ZM7.03175 21.076C5.52803 19.0511 4.83068 16.5385 5.07543 14.0272C5.32018 11.5159 6.48953 9.18566 8.35586 7.48998C10.2222 5.7943 12.652 4.85452 15.1723 4.85356C17.6926 4.85261 20.1231 5.79054 21.9907 7.48481C21.9892 7.4632 21.992 7.44151 21.999 7.42102C22.006 7.40053 22.0171 7.38168 22.0316 7.36558C22.046 7.34948 22.0636 7.33647 22.0832 7.32733C22.1028 7.3182 22.1241 7.31312 22.1457 7.3124C22.1868 7.3124 22.2262 7.32875 22.2553 7.35784C22.2844 7.38694 22.3007 7.42641 22.3007 7.46756C22.3004 7.48702 22.2962 7.50622 22.2883 7.524C22.2804 7.54178 22.269 7.55777 22.2548 7.571C22.223 7.60349 22.1797 7.62208 22.1342 7.62273C22.3816 7.87149 22.6099 8.13851 22.8173 8.42153C24.0816 10.0423 24.8368 12.0024 24.9871 14.0534C25.252 16.6803 24.6054 19.3184 23.156 21.5242C21.8259 21.4385 20.5477 20.9757 19.4704 20.1901C18.3931 19.4044 17.5613 18.3281 17.072 17.0869C16.5827 15.8457 16.4562 14.4908 16.7071 13.1803C16.958 11.8699 17.5761 10.6579 18.4892 9.68582C15.6523 10.207 13.0368 11.5683 10.981 13.5936C8.94657 15.6522 7.56641 18.2677 7.01453 21.1104L7.03175 21.076Z" fill="url(#paint0_linear_1001_171)"/>
<path d="M29.7342 17.9269C29.7342 17.9672 29.7342 18.0074 29.7342 18.0476C29.6653 18.3752 29.585 18.697 29.4874 19.0188C29.4242 19.2544 29.3553 19.4843 29.2807 19.7142C29.2061 19.9441 29.1774 20.0245 29.12 20.1739C29.0626 20.3233 29.0052 20.4843 28.942 20.6337C28.927 20.6858 28.9058 20.736 28.8789 20.7831C28.8613 20.8324 28.8402 20.8805 28.8158 20.9268C28.7576 21.0846 28.6885 21.2382 28.6091 21.3865C28.5441 21.5359 28.4752 21.6796 28.4025 21.8175C28.3451 21.9439 28.2762 22.0704 28.2073 22.1911C28.1384 22.3117 28.0868 22.4094 28.0236 22.5186C27.9025 22.7379 27.7703 22.9508 27.6275 23.1565L27.2372 23.7312C27.1568 23.8461 27.0765 23.9611 26.9904 24.0703C26.8297 24.2886 26.6575 24.507 26.4738 24.7196C26.2901 24.9323 26.0949 25.1507 25.8997 25.3575C25.8079 25.461 25.7103 25.5587 25.607 25.6621L25.297 25.9667C25.1593 26.0989 25.0157 26.2253 24.8722 26.3517C24.444 26.7314 23.9915 27.0827 23.5176 27.4034L22.9435 27.7712L22.3695 28.1103L21.9505 28.3401L21.8586 28.3861L21.3879 28.616L21.0206 28.7826L20.8426 28.8631C20.6073 28.9665 20.3662 29.0642 20.1251 29.1447L19.8094 29.2539C19.6295 29.319 19.4516 29.3765 19.2755 29.4263C18.9713 29.5182 18.6613 29.5929 18.3456 29.6676C16.543 28.6881 15.0406 27.236 13.9994 25.4669C12.9583 23.6977 12.4175 21.6783 12.4352 19.625C12.4529 17.5717 13.0284 15.562 14.0999 13.8111C15.1714 12.0602 16.6986 10.6343 18.5178 9.68604C17.6048 10.6581 16.9867 11.8701 16.7357 13.1806C16.4848 14.491 16.6114 15.846 17.1007 17.0871C17.5899 18.3283 18.4218 19.4046 19.499 20.1903C20.5763 20.976 21.8546 21.4387 23.1846 21.5244C23.3339 21.5244 23.4831 21.5244 23.6324 21.5244C24.8766 21.52 26.0974 21.1845 27.1695 20.5523C28.2417 19.9202 29.1268 19.0142 29.7342 17.9269Z" fill="url(#paint1_linear_1001_171)"/>
<path d="M29.7341 17.9269C29.7341 17.9672 29.7341 18.0074 29.7341 18.0476C29.6652 18.3752 29.5848 18.697 29.4872 19.0188C29.4241 19.2544 29.3552 19.4843 29.2806 19.7142C29.206 19.9441 29.1773 20.0245 29.1199 20.1739C29.0625 20.3233 29.0051 20.4843 28.9419 20.6337C28.9269 20.6858 28.9057 20.736 28.8788 20.7831C28.8612 20.8324 28.8401 20.8805 28.8156 20.9268C28.7575 21.0846 28.6884 21.2382 28.609 21.3865C28.5439 21.5359 28.4751 21.6796 28.4024 21.8175C28.3449 21.9439 28.2761 22.0704 28.2072 22.1911C28.1383 22.3117 28.0866 22.4094 28.0235 22.5186C27.9024 22.7379 27.7702 22.9508 27.6274 23.1565L27.2371 23.7312C27.1567 23.8461 27.0764 23.9611 26.9903 24.0703C26.8295 24.2886 26.6573 24.507 26.4736 24.7196C26.29 24.9323 26.0948 25.1507 25.8996 25.3575C25.8078 25.461 25.7102 25.5587 25.6069 25.6621C23.6038 26.0948 21.5129 25.8239 19.6859 24.8948C17.8588 23.9657 16.407 22.4352 15.5745 20.5606C14.742 18.686 14.5795 16.5816 15.1145 14.6011C15.6495 12.6207 16.8492 10.8851 18.512 9.68604C17.5989 10.6581 16.9808 11.8701 16.7299 13.1806C16.4789 14.491 16.6055 15.846 17.0948 17.0871C17.5841 18.3283 18.4159 19.4046 19.4932 20.1903C20.5704 20.976 21.8487 21.4387 23.1788 21.5244C23.328 21.5244 23.4772 21.5244 23.6265 21.5244C24.8717 21.521 26.0937 21.186 27.1669 20.5538C28.2402 19.9216 29.1262 19.015 29.7341 17.9269Z" fill="url(#paint2_linear_1001_171)"/>
<path d="M0.746158 7.20305C0.68374 7.20305 0.623881 7.17823 0.579744 7.13404C0.535608 7.08986 0.510812 7.02993 0.510812 6.96744C0.510046 6.93602 0.515567 6.90476 0.527051 6.87551C0.538535 6.84625 0.555751 6.81959 0.577682 6.7971C0.599613 6.77461 0.625816 6.75674 0.654751 6.74454C0.683685 6.73234 0.714763 6.72606 0.746158 6.72607C0.80964 6.72754 0.87012 6.75343 0.91502 6.79838C0.959921 6.84333 0.985786 6.90388 0.987246 6.96744C0.985747 7.03045 0.959687 7.09038 0.914635 7.13441C0.869584 7.17844 0.809117 7.20307 0.746158 7.20305Z" fill="#658EF1"/>
<path d="M27.6391 6.53065C27.6383 6.52037 27.6397 6.51003 27.6431 6.50029C27.6465 6.49055 27.6518 6.48163 27.6589 6.47407C27.6659 6.46651 27.6744 6.46049 27.6838 6.45638C27.6933 6.45227 27.7035 6.45017 27.7138 6.4502C27.7351 6.4502 27.7555 6.45867 27.7706 6.47376C27.7857 6.48885 27.7941 6.50931 27.7941 6.53065C27.7941 6.55199 27.7857 6.57245 27.7706 6.58754C27.7555 6.60263 27.7351 6.61111 27.7138 6.61111C27.7035 6.61114 27.6933 6.60903 27.6838 6.60492C27.6744 6.60081 27.6659 6.59479 27.6589 6.58723C27.6518 6.57967 27.6465 6.57075 27.6431 6.56101C27.6397 6.55127 27.6383 6.54093 27.6391 6.53065Z" fill="#7D9FF3"/>
<path d="M28.4941 6.53636C28.4941 6.48095 28.5157 6.42772 28.5543 6.38801C28.5929 6.34829 28.6455 6.32523 28.7008 6.32373C28.7571 6.32373 28.8111 6.34614 28.851 6.38601C28.8908 6.42589 28.9132 6.47997 28.9132 6.53636C28.9132 6.59276 28.8908 6.64684 28.851 6.68672C28.8111 6.72659 28.7571 6.74899 28.7008 6.74899C28.6455 6.74749 28.5929 6.72444 28.5543 6.68472C28.5157 6.64501 28.4941 6.59177 28.4941 6.53636Z" fill="#7D9FF3"/>
<path d="M3.63925 5.74366C3.5958 5.74367 3.55278 5.73501 3.5127 5.71819C3.47263 5.70137 3.4363 5.67673 3.40584 5.6457C3.37538 5.61467 3.3514 5.57788 3.3353 5.53747C3.3192 5.49706 3.3113 5.45385 3.31206 5.41035C3.3113 5.36658 3.31916 5.32308 3.33519 5.28235C3.35123 5.24162 3.37512 5.20445 3.4055 5.17296C3.43589 5.14148 3.47217 5.1163 3.51228 5.09885C3.55238 5.0814 3.59553 5.07204 3.63925 5.07129C3.72917 5.07272 3.81509 5.10872 3.87921 5.17185C3.94333 5.23497 3.98073 5.32037 3.98367 5.41035C3.98069 5.49979 3.94309 5.58457 3.87882 5.64677C3.81455 5.70897 3.72864 5.74371 3.63925 5.74366Z" fill="#658EF1"/>
<path d="M26.9043 3.96225C26.9043 3.93611 26.912 3.91056 26.9265 3.88882C26.9411 3.86709 26.9617 3.85014 26.9858 3.84014C27.0099 3.83013 27.0365 3.82752 27.0621 3.83262C27.0877 3.83772 27.1112 3.85031 27.1297 3.86879C27.1481 3.88728 27.1607 3.91083 27.1658 3.93647C27.1709 3.96211 27.1683 3.98869 27.1583 4.01284C27.1483 4.03699 27.1314 4.05763 27.1097 4.07215C27.088 4.08668 27.0624 4.09443 27.0363 4.09443C27.0013 4.09443 26.9677 4.0805 26.943 4.05572C26.9182 4.03093 26.9043 3.99731 26.9043 3.96225Z" fill="#7D9FF3"/>
<path d="M2.81831 3.9677C2.78016 3.96052 2.74573 3.94022 2.72095 3.91032C2.69618 3.88041 2.68262 3.84277 2.68262 3.80392C2.68262 3.76506 2.69618 3.72743 2.72095 3.69752C2.74573 3.66762 2.78016 3.64732 2.81831 3.64014C2.85645 3.64732 2.89088 3.66762 2.91566 3.69752C2.94043 3.72743 2.95399 3.76506 2.95399 3.80392C2.95399 3.84277 2.94043 3.88041 2.91566 3.91032C2.89088 3.94022 2.85645 3.96052 2.81831 3.9677Z" fill="#658EF1"/>
<path d="M4.37964 3.50259C4.37964 3.48441 4.38502 3.46663 4.39512 3.45151C4.40521 3.43639 4.41955 3.42461 4.43633 3.41765C4.45312 3.41069 4.47158 3.40886 4.4894 3.41241C4.50722 3.41596 4.52358 3.42472 4.53643 3.43758C4.54927 3.45044 4.55802 3.46682 4.56156 3.48465C4.5651 3.50249 4.56329 3.52098 4.55634 3.53778C4.54938 3.55458 4.53761 3.56894 4.52251 3.57905C4.50741 3.58915 4.48964 3.59454 4.47148 3.59454C4.44712 3.59454 4.42376 3.58486 4.40654 3.56761C4.38931 3.55037 4.37964 3.52698 4.37964 3.50259Z" fill="#658EF1"/>
<path d="M25.4808 3.20933C25.48 3.17262 25.4866 3.13613 25.5001 3.102C25.5136 3.06787 25.5337 3.03677 25.5594 3.01055C25.5851 2.98432 25.6157 2.96349 25.6495 2.94927C25.6833 2.93505 25.7196 2.92773 25.7563 2.92773C25.8324 2.92773 25.9054 2.95801 25.9592 3.01189C26.0131 3.06578 26.0433 3.13887 26.0433 3.21507C26.0433 3.29128 26.0131 3.36437 25.9592 3.41825C25.9054 3.47214 25.8324 3.50241 25.7563 3.50241C25.7186 3.50249 25.6813 3.49482 25.6467 3.47989C25.6121 3.46497 25.5809 3.44309 25.5551 3.41562C25.5293 3.38815 25.5094 3.35567 25.4966 3.32019C25.4838 3.28471 25.4784 3.24697 25.4808 3.20933Z" fill="#7D9FF3"/>
<path d="M27.0422 2.57129C27.0422 2.56248 27.044 2.55376 27.0475 2.54569C27.0511 2.53762 27.0562 2.53038 27.0627 2.52443C27.0692 2.51848 27.0769 2.51395 27.0852 2.51113C27.0935 2.50831 27.1024 2.50727 27.1111 2.50807C27.1279 2.50807 27.1439 2.51473 27.1558 2.52659C27.1676 2.53844 27.1743 2.55452 27.1743 2.57129C27.1751 2.58006 27.174 2.5889 27.1712 2.59725C27.1684 2.6056 27.1639 2.61326 27.1579 2.61975C27.152 2.62624 27.1448 2.63142 27.1367 2.63495C27.1286 2.63848 27.1199 2.64029 27.1111 2.64025C27.0929 2.64025 27.0753 2.63299 27.0624 2.62005C27.0495 2.60712 27.0422 2.58958 27.0422 2.57129Z" fill="#7D9FF3"/>
<path d="M7.76099 1.07163C7.76099 1.04549 7.76873 1.01993 7.78324 0.998198C7.79775 0.976462 7.81836 0.959517 7.84249 0.949513C7.86661 0.939509 7.89316 0.936893 7.91877 0.941993C7.94438 0.947094 7.9679 0.95968 7.98636 0.978165C8.00483 0.99665 8.01741 1.0202 8.0225 1.04584C8.02759 1.07148 8.02498 1.09806 8.01498 1.12221C8.00499 1.14636 7.98807 1.16701 7.96636 1.18153C7.94465 1.19605 7.91913 1.20381 7.89301 1.20381C7.87568 1.20381 7.85851 1.20039 7.84249 1.19374C7.82647 1.1871 7.81192 1.17737 7.79966 1.16509C7.7874 1.15282 7.77767 1.13825 7.77104 1.12221C7.7644 1.10618 7.76099 1.08899 7.76099 1.07163Z" fill="#658EF1"/>
<path d="M23.5808 0.663182C23.5807 0.646084 23.5842 0.629162 23.5909 0.613436C23.5976 0.59771 23.6074 0.583506 23.6197 0.571687C23.6321 0.559869 23.6467 0.550679 23.6627 0.544674C23.6787 0.53867 23.6957 0.535975 23.7128 0.536752C23.7463 0.536752 23.7784 0.550073 23.8021 0.573783C23.8258 0.597493 23.8391 0.629651 23.8391 0.663182C23.8431 0.682438 23.8429 0.702361 23.8383 0.7215C23.8337 0.740638 23.8249 0.758508 23.8125 0.773802C23.8001 0.789096 23.7845 0.801427 23.7667 0.809899C23.749 0.818371 23.7296 0.822767 23.7099 0.822767C23.6902 0.822767 23.6708 0.818371 23.6531 0.809899C23.6353 0.801427 23.6197 0.789096 23.6073 0.773802C23.5949 0.758508 23.5861 0.740638 23.5815 0.7215C23.5769 0.702361 23.5767 0.682438 23.5808 0.663182Z" fill="#7D9FF3"/>
<defs>
<linearGradient id="paint0_linear_1001_171" x1="-0.0803629" y1="15.0188" x2="29.9696" y2="15.0188" gradientUnits="userSpaceOnUse">
<stop stop-color="#2152DB"/>
<stop offset="0.18" stop-color="#2556DC"/>
<stop offset="0.37" stop-color="#3260DF"/>
<stop offset="0.57" stop-color="#4771E3"/>
<stop offset="0.77" stop-color="#658AEA"/>
<stop offset="0.97" stop-color="#8BA9F2"/>
<stop offset="1" stop-color="#92AFF4"/>
</linearGradient>
<linearGradient id="paint1_linear_1001_171" x1="15.1713" y1="14.3754" x2="26.7296" y2="27.2983" gradientUnits="userSpaceOnUse">
<stop stop-color="#2152DB"/>
<stop offset="0.15" stop-color="#2757DC"/>
<stop offset="0.37" stop-color="#3A66E0"/>
<stop offset="0.62" stop-color="#577FE7"/>
<stop offset="0.9" stop-color="#81A1F0"/>
<stop offset="1" stop-color="#92AFF4"/>
</linearGradient>
<linearGradient id="paint2_linear_1001_171" x1="18.9712" y1="14.588" x2="28.0137" y2="26.5084" gradientUnits="userSpaceOnUse">
<stop stop-color="#2152DB"/>
<stop offset="0.45" stop-color="#6489EA"/>
<stop offset="0.79" stop-color="#92AFF4"/>
</linearGradient>
</defs>
</svg>
