<svg width="483" height="568" viewBox="0 0 483 568" fill="none" xmlns="http://www.w3.org/2000/svg">
<path d="M115.969 511.874C157.983 442.345 217.233 384.837 287.985 344.916C358.737 304.996 438.596 284.013 519.833 284C535.752 284 551.376 284.884 567 286.358M460.874 63.202C416.673 117.485 360.93 161.235 297.698 191.271C234.466 221.306 165.335 236.871 95.3323 236.834C65.5648 236.801 35.8631 234.038 6.60005 228.58M159.892 29.5968C247.637 81.3214 316.348 159.981 355.809 253.882C395.271 347.783 403.377 451.912 378.922 550.788M567 284C567 440.297 440.297 567 284 567C127.703 567 1 440.297 1 284C1 127.703 127.703 1 284 1C440.297 1 567 127.703 567 284Z" stroke="url(#paint0_linear_331_205)" stroke-width="2" stroke-linecap="round" stroke-linejoin="round"/>
<defs>
<linearGradient id="paint0_linear_331_205" x1="379.183" y1="-16.8468" x2="211.479" y2="555.952" gradientUnits="userSpaceOnUse">
<stop stop-color="#2F4153" stop-opacity="0.2"/>
<stop offset="1" stop-color="#3A6A9A" stop-opacity="0"/>
</linearGradient>
</defs>
</svg>
