<svg width="122" height="122" viewBox="0 0 122 122" fill="none" xmlns="http://www.w3.org/2000/svg">
<path d="M61 121C94.1371 121 121 94.1371 121 61C121 27.8629 94.1371 1 61 1C27.8629 1 1 27.8629 1 61C1 94.1371 27.8629 121 61 121Z" fill="#0C1620" stroke="#2F4153" stroke-width="0.857143" stroke-miterlimit="10"/>
<path d="M15.6064 44.4835L17.8454 39.0547L19.6397 40.1129L18.3208 43.2874L19.7164 44.1155L20.7592 41.5851L22.4001 42.5513L21.388 45.0816L22.9215 45.9251L24.3017 42.5666L26.1113 43.6248L23.7957 49.2376L15.6064 44.4835Z" fill="#CEDCFF"/>
<path d="M24.1788 37.2145L19.5781 36.141L21.1117 33.994L23.9794 34.8068L22.6146 31.8163L24.0561 29.7307L25.9884 34.7148L31.0338 35.8803L29.5003 38.0273L26.1724 37.1378L27.706 40.6343L26.2645 42.7353L24.1788 37.2145Z" fill="#CEDCFF"/>
<path d="M26.5713 27.1236L28.8103 25.038C30.3439 23.6578 31.8774 23.6424 32.9356 24.854C33.2923 25.1731 33.5738 25.5674 33.7598 26.0084C33.9457 26.4495 34.0315 26.9263 34.011 27.4045C33.9905 27.8827 33.8641 28.3504 33.641 28.7738C33.4179 29.1973 33.1037 29.566 32.7209 29.8534L31.9234 30.5895L33.7484 33.2272L31.9541 34.8834L26.5713 27.1236ZM31.4173 28.5805C31.564 28.4658 31.6826 28.3191 31.7641 28.1517C31.8457 27.9843 31.8881 27.8006 31.8881 27.6144C31.8881 27.4282 31.8457 27.2444 31.7641 27.077C31.6826 26.9096 31.564 26.763 31.4173 26.6482C31.3334 26.5217 31.2195 26.4179 31.0857 26.3461C30.9519 26.2743 30.8024 26.2367 30.6506 26.2367C30.4987 26.2367 30.3492 26.2743 30.2155 26.3461C30.0817 26.4179 29.9677 26.5217 29.8838 26.6482L29.4084 27.093L30.8653 29.0559L31.4173 28.5805Z" fill="#CEDCFF"/>
<path d="M34.27 20.7747L36.3557 19.4865L39.2848 26.2342L42.0145 24.5626L42.858 26.4949L38.0426 29.4547L34.27 20.7747Z" fill="#CEDCFF"/>
<path d="M48.0108 24.4553C47.5035 24.6621 46.9585 24.7604 46.4109 24.744C45.8633 24.7276 45.3252 24.5967 44.8312 24.3598C44.3372 24.1229 43.8983 23.7853 43.5426 23.3685C43.1869 22.9518 42.9224 22.4653 42.7661 21.9402C41.7079 18.8731 42.7661 16.036 45.5418 15.1005C46.0528 14.8784 46.6056 14.7685 47.1627 14.7782C47.7198 14.788 48.2684 14.9171 48.7713 15.157C49.2743 15.3968 49.7199 15.7418 50.0781 16.1685C50.4364 16.5953 50.6989 17.094 50.8479 17.6309C51.9214 20.744 50.7713 23.5351 48.0108 24.4553ZM46.1552 17.0942C44.7444 17.5696 44.6217 19.3638 45.1277 21.0047C45.5418 22.1702 46.3853 22.7837 47.4741 22.4003C48.8543 21.9249 49.0077 20.1613 48.4862 18.551C48.0875 17.4776 47.2901 16.7874 46.1552 17.1402V17.0942Z" fill="#CEDCFF"/>
<path d="M53.8993 13.1989L57.1198 12.8922C59.1748 12.6928 60.3249 13.5976 60.4783 15.2385C60.6011 15.8664 60.4995 16.5175 60.1912 17.0781C59.8828 17.6386 59.3874 18.0731 58.7914 18.3056L60.7543 22.0015L58.2853 22.2316L56.6597 18.9804H56.0923L55.9389 22.3696L53.5312 22.5996L53.8993 13.1989ZM56.9664 17.1861C57.1476 17.2061 57.3309 17.182 57.5009 17.1161C57.6708 17.0502 57.8224 16.9443 57.9427 16.8074C58.0631 16.6705 58.1487 16.5066 58.1923 16.3296C58.2359 16.1526 58.2362 15.9677 58.1933 15.7906C58.1933 15.1465 57.7485 14.8551 57.0431 14.9318H56.2763L56.169 17.2015L56.9664 17.1861Z" fill="#CEDCFF"/>
<path d="M64.5423 12.8309L70.3698 13.4903L69.8484 15.5146L66.4285 15.1312L66.0145 16.6648L68.7289 16.9868L68.2535 18.8271L65.5237 18.505L65.079 20.2073L68.6982 20.6214L68.1768 22.6303L62.1499 21.9402L64.5423 12.8309Z" fill="#CEDCFF"/>
<path d="M77.8841 15.6219L80.6599 16.9254L79.4024 21.8022L83.6196 18.321L86.5181 19.6859L81.35 27.5224L79.1416 26.4949L82.3928 21.5568L77.2707 25.6054L76.5959 25.314L77.9761 19.5018L74.6636 24.4552L72.7007 23.5351L77.8841 15.6219Z" fill="#CEDCFF"/>
<path d="M86.1658 31.5403C85.7371 31.2016 85.3845 30.7764 85.1308 30.2925C84.8772 29.8086 84.7281 29.2768 84.6934 28.7316C84.6587 28.1863 84.7391 27.6399 84.9293 27.1277C85.1196 26.6155 85.4154 26.1491 85.7977 25.7588C87.914 23.3051 90.9505 22.8757 93.0974 24.7466C93.536 25.0853 93.8973 25.5136 94.1571 26.0031C94.417 26.4925 94.5694 27.0317 94.6042 27.5847C94.6391 28.1378 94.5555 28.6918 94.3591 29.21C94.1628 29.7282 93.8581 30.1985 93.4655 30.5895C91.3645 33.0739 88.3741 33.4573 86.1658 31.5403ZM91.6099 26.2802C90.5057 25.2987 88.8495 26.0195 87.7146 27.3383C87.5173 27.5068 87.3587 27.716 87.2501 27.9517C87.1414 28.1873 87.0851 28.4437 87.0851 28.7032C87.0851 28.9627 87.1414 29.2191 87.2501 29.4547C87.3587 29.6904 87.5173 29.8996 87.7146 30.0681C88.8341 31.0342 90.4444 30.3135 91.5639 29.0099C92.2847 28.1205 92.5147 27.0623 91.6099 26.2802Z" fill="#CEDCFF"/>
<path d="M98.9098 31.0342L100.781 33.6566C101.992 35.3435 101.778 36.8004 100.428 37.7359C99.9447 38.1416 99.3338 38.3639 98.7028 38.3639C98.0717 38.3639 97.4609 38.1416 96.9775 37.7359L94.7538 41.3244L93.3276 39.3001L95.2446 36.233L94.9072 35.7576L91.8401 37.2912L90.4292 35.3129L98.9098 31.0342ZM96.9775 35.6349C97.0577 35.7925 97.1736 35.9292 97.316 36.034C97.4584 36.1388 97.6233 36.2089 97.7976 36.2387C97.9719 36.2685 98.1508 36.2572 98.3199 36.2056C98.489 36.154 98.6438 36.0636 98.7718 35.9416C99.3239 35.5736 99.3545 35.0982 98.9558 34.5154L98.5111 33.8867L96.5328 34.9755L96.9775 35.6349Z" fill="#CEDCFF"/>
<path d="M104.507 40.0362L106.838 45.419L104.829 45.9251L103.464 42.858L101.931 43.2874L103.019 45.8024L101.179 46.3085L100.09 43.7935L98.4033 44.2382L99.8602 47.5967L97.8359 48.1334L95.4282 42.5666L104.507 40.0362Z" fill="#CEDCFF"/>
<path d="M106.363 77.5625L104.201 82.9759L102.406 81.9178L103.71 78.7433L102.314 77.9152L101.134 80.4455L99.6 79.4947L100.643 76.949L99.1092 76.0596L97.729 79.4181L95.9194 78.3599L98.2351 72.7471L106.363 77.5625Z" fill="#CEDCFF"/>
<path d="M97.7897 84.8162L102.39 85.8897L100.857 88.0367L98.0657 87.2239L99.4306 90.291L98.0657 92.3L95.9188 87.3312L90.8887 86.1657L92.4222 84.0187L95.7347 84.9082L94.2012 81.4117L95.6427 79.3107L97.7897 84.8162Z" fill="#CEDCFF"/>
<path d="M95.3825 94.907L93.1435 96.9927C91.6099 98.3729 90.1531 98.3882 89.0182 97.1767C88.6623 96.8565 88.382 96.4613 88.1973 96.0196C88.0126 95.578 87.9282 95.1008 87.9502 94.6226C87.9722 94.1444 88.1 93.677 88.3245 93.2541C88.549 92.8313 88.8645 92.4635 89.2483 92.1773L90.0457 91.4412L88.2208 88.8648L90.015 87.1932L95.3825 94.907ZM90.5518 93.4655C90.4023 93.58 90.2812 93.7275 90.1979 93.8963C90.1145 94.0652 90.0712 94.251 90.0712 94.4393C90.0712 94.6276 90.1145 94.8134 90.1979 94.9823C90.2812 95.1512 90.4023 95.2986 90.5518 95.4131C90.9812 95.8885 91.4873 95.8885 92.0853 95.4131L92.5608 94.9684L91.1805 93.0054L90.5518 93.4655Z" fill="#CEDCFF"/>
<path d="M87.6992 101.256L85.6135 102.544L82.7304 95.7811L80.0007 97.4681L79.1572 95.5358L83.9879 92.576L87.6992 101.256Z" fill="#CEDCFF"/>
<path d="M73.958 97.5294C74.4643 97.3227 75.0082 97.2244 75.5548 97.241C76.1014 97.2576 76.6384 97.3886 77.1312 97.6256C77.6241 97.8626 78.0617 98.2003 78.4158 98.617C78.77 99.0336 79.0329 99.5199 79.1874 100.044C80.2609 103.112 79.1874 105.949 76.427 106.884C75.9157 107.104 75.3635 107.212 74.8071 107.201C74.2508 107.19 73.7032 107.06 73.201 106.821C72.6987 106.581 72.2534 106.237 71.8947 105.812C71.536 105.386 71.2722 104.889 71.1209 104.354C70.0474 101.271 71.1976 98.4956 73.958 97.5294ZM75.7983 104.875C77.2092 104.4 77.4085 102.621 76.8258 100.98C76.427 99.7991 75.5836 99.201 74.4947 99.569C73.0992 100.06 72.9612 101.808 73.4826 103.434C73.866 104.538 74.6788 105.259 75.7983 104.875Z" fill="#CEDCFF"/>
<path d="M68.0391 108.801L64.8186 109.108C62.7483 109.307 61.5981 108.402 61.4601 106.746C61.331 106.118 61.4298 105.464 61.7389 104.902C62.0481 104.34 62.5472 103.906 63.147 103.679L61.2607 100.075L63.7144 99.8451L65.4167 103.05H65.9841L66.1528 99.6764L68.5605 99.4464L68.0391 108.801ZM64.972 104.798C64.7937 104.789 64.6157 104.821 64.452 104.892C64.2884 104.964 64.1435 105.072 64.029 105.209C63.9144 105.346 63.8333 105.507 63.792 105.681C63.7507 105.855 63.7504 106.036 63.7911 106.209C63.7911 106.853 64.2512 107.13 64.9413 107.068H65.7081L65.8614 104.752L64.972 104.798Z" fill="#CEDCFF"/>
<path d="M57.4271 109.184L51.5996 108.525L52.1364 106.501L55.5562 106.899L55.9549 105.366L53.2405 105.059L53.7159 103.204L56.4457 103.526L56.8751 101.839L53.2712 101.425L53.7926 99.4004L59.8195 100.09L57.4271 109.184Z" fill="#CEDCFF"/>
<path d="M44.0849 106.393L41.3245 105.09L42.5974 100.213L38.3801 103.694L35.4663 102.329L40.6497 94.447L42.8427 95.4745L39.5916 100.413L44.729 96.3639L45.4651 96.7013L44.0696 102.514L47.3207 97.5755L49.299 98.4956L44.0849 106.393Z" fill="#CEDCFF"/>
<path d="M35.804 90.3984C36.2353 90.7354 36.5914 91.1589 36.8493 91.6417C37.1073 92.1245 37.2614 92.6559 37.3018 93.2017C37.3423 93.7476 37.2681 94.2959 37.0841 94.8114C36.9001 95.327 36.6104 95.7983 36.2334 96.1952C34.1018 98.6489 31.0807 99.0783 28.9183 97.2074C28.4741 96.873 28.1063 96.4478 27.8394 95.9601C27.5725 95.4723 27.4127 94.9333 27.3706 94.3789C27.3285 93.8245 27.4051 93.2675 27.5953 92.7451C27.7855 92.2226 28.0849 91.7467 28.4736 91.3492C30.5899 88.9415 33.657 88.5427 35.804 90.3984ZM30.3446 95.6738C31.4641 96.6553 33.105 95.9345 34.2398 94.6156C34.4395 94.4487 34.6002 94.2399 34.7104 94.0041C34.8207 93.7683 34.8778 93.5111 34.8778 93.2508C34.8778 92.9905 34.8207 92.7333 34.7104 92.4975C34.6002 92.2616 34.4395 92.0529 34.2398 91.8859C33.1203 90.9198 31.5101 91.6405 30.3906 92.9287C29.6851 93.8949 29.4551 94.999 30.3446 95.7351V95.6738Z" fill="#CEDCFF"/>
<path d="M23.0598 90.9811L21.1888 88.3434C19.9773 86.6565 20.192 85.2763 21.5416 84.2641C22.0275 83.8641 22.6374 83.6453 23.2668 83.6453C23.8963 83.6453 24.5061 83.8641 24.9921 84.2641L27.2157 80.7216L28.6419 82.7306L26.725 85.7977L27.047 86.2578L30.1142 84.7242L31.5097 86.7025L23.0598 90.9811ZM24.9921 86.3804C24.9092 86.2238 24.7918 86.088 24.6486 85.9836C24.5055 85.8791 24.3404 85.8087 24.1659 85.7777C23.9914 85.7466 23.8121 85.7558 23.6417 85.8044C23.4713 85.8531 23.3143 85.9399 23.1825 86.0584C23.0606 86.1271 22.9566 86.2237 22.8791 86.3401C22.8015 86.4566 22.7525 86.5897 22.7361 86.7287C22.7196 86.8676 22.7362 87.0085 22.7845 87.1399C22.8327 87.2712 22.9113 87.3893 23.0138 87.4846L23.4585 88.1134L25.4828 87.0706L24.9921 86.3804Z" fill="#CEDCFF"/>
<path d="M17.4624 81.9791L15.1313 76.5963L17.1403 76.0596L18.5052 79.1267L20.0387 78.6973L18.9499 76.1822L20.7902 75.6762L21.879 78.2065L23.5659 77.7465L22.1091 74.4033L24.1334 73.8512L26.541 79.4334L17.4624 81.9791Z" fill="#CEDCFF"/>
<path d="M60.7172 86.7143C74.9188 86.7143 86.4315 75.2016 86.4315 61C86.4315 46.7984 74.9188 35.2857 60.7172 35.2857C46.5156 35.2857 35.0029 46.7984 35.0029 61C35.0029 75.2016 46.5156 86.7143 60.7172 86.7143Z" fill="#0C1620" stroke="#2F4153" stroke-width="0.857143" stroke-miterlimit="10"/>
<path d="M61 51L59.2432 52.7568L66.2102 59.7538H51V62.2462H66.2102L59.2282 69.2282L61 71L71 61L61 51Z" fill="#97B1CB"/>
<path d="M103.541 54.4824C103.649 56.1754 104.37 57.771 105.57 58.9706C106.77 60.1702 108.365 60.8916 110.058 61C108.365 61.1084 106.77 61.8299 105.57 63.0295C104.37 64.2291 103.649 65.8246 103.541 67.5177C103.432 65.8246 102.711 64.2291 101.511 63.0295C100.312 61.8299 98.716 61.1084 97.0229 61C98.716 60.8916 100.312 60.1702 101.511 58.9706C102.711 57.771 103.432 56.1754 103.541 54.4824Z" fill="#97B1CB"/>
<path d="M18.8577 54.4824C18.9661 56.1754 19.6875 57.771 20.8871 58.9706C22.0867 60.1702 23.6823 60.8916 25.3753 61C23.6812 61.1052 22.0838 61.8256 20.8835 63.0259C19.6833 64.2261 18.9628 65.8235 18.8577 67.5177C18.7457 65.8233 18.021 64.2276 16.8189 63.0283C15.6168 61.829 14.0193 61.108 12.3247 61C14.0193 60.892 15.6168 60.1711 16.8189 58.9718C18.021 57.7725 18.7457 56.1768 18.8577 54.4824Z" fill="#97B1CB"/>
</svg>
