<svg width="120" height="34" viewBox="0 0 120 34" fill="none" xmlns="http://www.w3.org/2000/svg">
<g clip-path="url(#clip0_331_576)">
<path d="M6.17571 0.1674C3.72116 1.19269 1.01965 4.08949 0.166616 7.72552C-0.913383 12.3324 3.58086 14.2807 3.9495 13.6418C4.38328 12.8913 3.14419 12.6374 2.88889 10.2471C2.55919 7.15992 3.99828 3.71005 5.80949 2.19652C6.14616 1.91545 6.1301 2.30683 6.1301 3.03065L6.05843 18.373C6.05843 21.6551 5.92253 22.6917 5.67843 23.7157C5.43101 24.7535 5.03343 25.4549 5.3348 25.7248C5.67146 26.027 7.10904 25.3082 7.94086 24.1499C8.93874 22.7608 9.28783 21.0925 9.35071 19.2807C9.42646 17.0967 9.42343 13.6311 9.42646 11.6541L9.39616 1.34078C9.38101 0.558022 7.20404 -0.263267 6.17677 0.165888L6.17571 0.1674ZM93.393 15.5268C93.3137 17.2331 92.9351 18.5667 92.4651 19.5075C91.5552 21.3287 89.6671 21.8942 88.8654 19.2763C88.4286 17.8492 88.4081 15.4659 88.7222 13.4744C89.0404 11.4457 89.9346 9.91346 91.4131 10.0517C92.8712 10.1883 93.5537 12.0621 93.3931 15.5269L93.393 15.5268ZM68.8106 26.1135C68.7909 28.9486 68.3434 31.4344 67.384 32.1579C66.0234 33.1817 64.1943 32.4138 64.5731 30.3449C64.9083 28.5142 66.4928 26.6446 68.8145 24.3603L68.8107 26.115L68.8106 26.1135ZM68.4389 15.5108C68.3556 17.0648 67.9518 18.6261 67.511 19.5083C66.6013 21.3295 64.6995 21.8988 63.9113 19.2771C63.3724 17.4856 63.5015 15.1671 63.7681 13.7064C64.1142 11.811 64.953 10.0525 66.459 10.0525C67.9234 10.0525 68.6454 11.6547 68.439 15.5109L68.4389 15.5108ZM54.199 15.487C54.1096 17.1329 53.7878 18.509 53.2712 19.5081C52.3363 21.3169 50.4871 21.8904 49.6715 19.2769C49.0836 17.3923 49.2836 14.8226 49.5283 13.4345C49.8913 11.3746 50.8001 9.91407 52.2192 10.0526C53.6768 10.1947 54.3853 12.0629 54.1992 15.4873L54.199 15.487ZM119.458 17.4095C119.101 17.4095 118.939 17.7758 118.804 18.3923C118.338 20.5361 117.847 21.0216 117.213 21.0216C116.507 21.0216 115.872 19.9601 115.709 17.8352C115.581 16.1643 115.601 13.0882 115.765 10.0283C115.798 9.39968 115.625 8.77756 113.934 8.16511C113.206 7.90157 112.149 7.51382 111.622 8.78134C110.134 12.3627 109.553 15.2061 109.415 16.3611C109.408 16.4209 109.335 16.433 109.322 16.2934C109.235 15.3683 109.039 13.6872 109.015 10.1549C109.011 9.46587 108.864 8.87926 108.102 8.39903C107.607 8.08744 106.104 7.53618 105.563 8.192C105.094 8.72845 104.551 10.1716 103.987 11.8821L103.209 14.213L103.221 9.03853C103.223 8.50163 102.854 8.32287 102.743 8.29053C102.242 8.14546 101.254 7.90308 100.834 7.90308C100.317 7.90308 100.19 8.1914 100.19 8.61134L100.108 16.9658L100.11 17.4479C99.8237 19.0176 98.8961 21.1486 97.8875 21.1486C96.8777 21.1486 96.4027 20.2578 96.4027 16.1861C96.4027 13.8109 96.4742 12.7781 96.5093 11.0604L96.5669 9.13856C96.5593 8.60968 95.6427 8.34327 95.216 8.24474C94.7872 8.14546 94.4149 8.10693 94.124 8.1234C93.7124 8.14652 93.421 8.41595 93.421 8.78632L93.4233 9.36266C92.893 8.53155 92.0404 7.9534 91.473 7.78582C89.9448 7.33324 88.3502 7.73444 87.1472 9.41283C86.1912 10.7465 85.6149 12.2572 85.3896 14.4276C85.2239 16.0143 85.278 17.6233 85.5727 18.9841C85.2166 20.5194 84.5555 21.1486 83.8318 21.1486C82.7808 21.1486 82.019 19.438 82.1075 16.4792C82.1658 14.5332 82.5563 13.1675 82.9833 11.1919C83.1651 10.3496 83.0174 9.90863 82.6466 9.48612C82.3065 9.09852 81.5818 8.90056 80.5399 9.14416C79.7978 9.31793 78.7369 9.50456 77.7662 9.64796C77.7662 9.64796 77.8248 9.41495 77.8728 9.00392C78.1252 6.84908 75.7774 7.02377 75.0281 7.71193C74.5812 8.12295 74.2766 8.60756 74.161 9.47902C73.9777 10.862 75.1087 11.5142 75.1087 11.5142C74.7375 13.2066 73.8281 15.421 72.889 17.0207C72.386 17.8778 72.0012 18.513 71.5046 19.1882L71.5005 18.4352L71.5577 11.061L71.6157 9.15942C71.6101 8.77257 71.3836 8.6266 70.9127 8.44164C70.496 8.27814 70.0036 8.16481 69.493 8.12537C68.8483 8.0752 68.4596 8.41625 68.4699 8.81957C68.4719 8.89573 68.4719 9.36327 68.4719 9.36327C67.9416 8.53216 67.0889 7.954 66.5216 7.78642C64.9934 7.334 63.3989 7.73504 62.1959 9.41344C61.2401 10.7471 60.614 12.6188 60.4383 14.4116C60.2716 16.0826 60.3034 17.5026 60.5287 18.6986C60.2857 19.8965 59.5871 21.149 58.7972 21.149C57.7874 21.149 57.2127 20.2582 57.2127 16.1865C57.2127 13.8114 57.2842 12.7785 57.3193 11.0608L57.3769 9.13902C57.3693 8.61013 56.4527 8.34372 56.026 8.24504C55.5796 8.14229 55.1927 8.10421 54.8983 8.12597C54.5078 8.15498 54.2331 8.50375 54.2331 8.76366V9.36296C53.7028 8.53185 52.8502 7.9537 52.2828 7.78612C50.7546 7.33369 49.1689 7.74124 47.9571 9.41313C47.1669 10.5034 46.5272 11.712 46.1995 14.3877C46.1043 15.1609 46.0624 15.8849 46.0677 16.5617C45.7525 18.4836 44.361 20.6986 43.2225 20.6986C42.5563 20.6986 41.9219 19.4099 41.9219 16.6636C41.9219 13.0052 42.1489 7.79685 42.1874 7.29471L43.904 7.26705C44.6215 7.2592 45.2713 7.27612 46.2268 7.22731C46.706 7.20313 47.1677 5.48742 46.6731 5.27495C46.4489 5.17885 44.8643 5.09468 44.2362 5.08153C43.708 5.06944 42.2377 4.9611 42.2377 4.9611L42.4003 1.13874C42.4263 0.834404 42.0315 0.677853 41.8048 0.582653C41.2542 0.350395 40.7616 0.239178 40.1775 0.119195C39.3709 -0.0467247 39.0048 0.115568 38.9333 0.794662C38.8272 1.82524 38.7696 4.84384 38.7696 4.84384C38.1777 4.84384 36.1554 4.72839 35.5633 4.72839C35.0133 4.72839 34.4193 7.08829 35.1799 7.11745L38.5915 7.21114L38.5483 14.6438C37.9918 17.5366 36.0316 19.0992 36.0316 19.0992C36.4525 17.1855 35.5927 15.7485 34.0437 14.5319C33.4731 14.0835 32.3468 13.2349 31.0862 12.3049C31.0862 12.3049 31.8162 11.5875 32.4649 10.1441C32.9236 9.12149 32.9434 7.95144 31.8177 7.69334C29.9574 7.26675 28.4237 8.62917 27.9662 10.0839C27.6116 11.2108 27.8007 12.0469 28.4949 12.9157C28.5457 12.9792 28.6006 13.0442 28.6574 13.1092C28.2374 13.9164 27.6604 15.0032 27.1721 15.8458C25.816 18.1857 24.7915 20.0365 24.0175 20.0365C23.3986 20.0365 23.4069 18.1575 23.4069 16.3981C23.4069 14.8814 23.519 12.6011 23.6089 10.2403C23.6386 9.45953 23.2471 9.0148 22.5907 8.61179C22.1922 8.36699 21.341 7.88585 20.8483 7.88585C20.1104 7.88585 17.9824 7.98589 15.9715 13.7873C15.718 14.5187 15.2199 15.8509 15.2199 15.8509L15.2628 8.87457C15.2628 8.71107 15.1756 8.55271 14.9754 8.44466C14.6366 8.26121 13.733 7.88585 12.9269 7.88585C12.5436 7.88585 12.3521 8.06371 12.3521 8.41822L12.2819 19.333C12.2819 20.1623 12.3036 21.1312 12.3859 21.5528C12.4681 21.9744 12.6004 22.321 12.7646 22.526C12.9289 22.7309 13.1186 22.8868 13.4316 22.9512C13.723 23.011 15.318 23.2153 15.401 22.6074C15.5004 21.879 15.504 21.0907 16.3419 18.1517C17.6459 13.5761 19.346 11.3434 20.1453 10.5505C20.2849 10.412 20.4445 10.4037 20.4369 10.6306L20.2021 16.2701C19.9854 21.9693 21.0251 23.0257 22.5107 23.0257C23.6471 23.0257 25.2493 21.8994 26.9652 19.0484L29.8225 14.2741L31.5109 15.8245C32.8674 17.1085 33.3127 18.3287 33.0172 19.4859C32.7912 20.3708 31.9399 21.2841 30.4253 20.3963C29.9837 20.1379 29.7952 19.938 29.3513 19.6464C29.1128 19.4898 28.7486 19.443 28.5301 19.6071C27.963 20.0335 27.6386 20.576 27.4533 21.2477C27.273 21.9013 27.9293 22.2465 28.6096 22.5473C29.1954 22.8072 30.4543 23.0429 31.2572 23.0698C34.3856 23.1756 36.8915 21.5632 38.636 17.4084C38.9481 20.9967 40.2774 23.0273 42.5863 23.0273C44.1303 23.0273 45.6778 21.0372 46.3545 19.0794C46.5487 19.8773 46.8363 20.5715 47.2078 21.1582C48.9871 23.9698 52.4387 23.3645 54.1725 20.9772C54.7086 20.2395 54.7902 19.9744 54.7902 19.9744C55.0433 22.2287 56.8634 23.0163 57.9054 23.0163C59.0727 23.0163 60.2778 22.466 61.1225 20.5694C61.2215 20.7752 61.3295 20.9718 61.4475 21.1581C63.2268 23.9697 66.6784 23.3643 68.4122 20.9771C68.4855 20.8767 68.5571 20.7751 68.6269 20.6723L68.6778 22.1532L67.0816 23.6132C64.4093 26.0582 62.3775 27.9134 62.228 30.0737C62.0362 32.8284 64.276 33.8519 65.9707 33.9859C67.7704 34.1284 69.3116 33.1367 70.2586 31.7495C71.0919 30.5282 71.6371 27.8995 71.5971 25.3034L71.5342 21.525C72.4736 20.437 73.5316 19.0623 74.506 17.453C75.5678 15.6992 76.706 13.344 77.2884 11.511C77.2884 11.511 78.2771 11.5195 79.3324 11.4506C79.6699 11.4287 79.7668 11.4974 79.7045 11.744C79.6292 12.0422 78.3715 16.8803 79.5192 20.1035C80.3049 22.3097 82.076 23.0199 83.1262 23.0199C84.3554 23.0199 85.5313 22.0941 86.1615 20.7193C86.2372 20.8725 86.3168 21.0209 86.4034 21.1578C88.1827 23.9694 91.6222 23.3605 93.3681 20.9768C93.7621 20.4388 93.9858 19.974 93.9858 19.974C94.3605 22.3071 96.1798 23.0279 97.2218 23.0279C98.3072 23.0279 99.3374 22.5841 100.173 20.6117C100.208 21.4801 100.263 22.1902 100.35 22.414C100.403 22.5509 100.711 22.7227 100.936 22.8058C101.929 23.173 102.941 22.9992 103.314 22.9237C103.574 22.8712 103.777 22.6638 103.804 22.1273C103.877 20.7193 103.832 18.3535 104.258 16.5951C104.977 13.6444 105.647 12.5 105.965 11.9334C106.143 11.616 106.344 11.5634 106.351 11.8995C106.366 12.5795 106.4 14.5757 106.678 17.2584C106.883 19.2311 107.156 20.3972 107.366 20.7663C107.964 21.8216 108.704 21.8716 109.305 21.8716C109.688 21.8716 110.489 21.7659 110.418 21.0945C110.383 20.7672 110.444 18.7441 111.152 15.837C111.615 13.9386 112.386 12.2233 112.664 11.5962C112.767 11.365 112.814 11.5473 112.813 11.5826C112.754 12.89 112.623 17.1662 113.156 19.5049C113.88 22.6733 115.975 23.0278 116.704 23.0278C118.262 23.0278 119.536 21.8461 119.965 18.7362C120.069 17.9878 119.916 17.4099 119.457 17.4099" fill="#97B1CB"/>
</g>
<defs>
<clipPath id="clip0_331_576">
<rect width="120" height="34" fill="white"/>
</clipPath>
</defs>
</svg>
