<svg width="99" height="45" viewBox="0 0 99 45" fill="none" xmlns="http://www.w3.org/2000/svg">
<g clip-path="url(#clip0_331_746)">
<path d="M59.4065 19.5702H56.9389C56.8882 19.3698 56.8504 19.1373 56.8252 18.8734C56.775 18.3598 56.775 17.8425 56.8252 17.3289C56.8504 17.0656 56.8882 16.8333 56.9389 16.6317H63.0887V35.9587C62.7809 36.0118 62.4705 36.0493 62.1587 36.0711C61.8491 36.0947 61.5387 36.1071 61.2281 36.1084C60.9306 36.1065 60.6333 36.0941 60.3367 36.0711C60.0251 36.0492 59.7149 36.0115 59.4071 35.9581V19.5695V19.5698L59.4065 19.5702ZM80.8157 24.4306C80.8157 23.7271 80.7206 23.0555 80.5314 22.4145C80.3413 21.7745 80.0621 21.2158 79.6962 20.7383C79.3285 20.2616 78.8606 19.8782 78.2912 19.5895C77.7219 19.3006 77.0448 19.156 76.2603 19.156C74.7167 19.156 73.5334 19.6213 72.7111 20.5502C71.8887 21.4793 71.3891 22.7727 71.2117 24.4306H80.8159H80.8157ZM71.1739 27.2183C71.2246 29.328 71.775 30.8729 72.8252 31.8519C73.875 32.8313 75.4253 33.3218 77.4752 33.3218C79.2715 33.3218 80.9798 33.0074 82.5995 32.3795C82.8014 32.7562 82.9658 33.2147 83.0925 33.7547C83.2168 34.2804 83.293 34.8162 83.3202 35.3556C82.4856 35.7081 81.5675 35.9707 80.5686 36.1469C79.5683 36.3222 78.4613 36.4107 77.2473 36.4107C75.4752 36.4107 73.9566 36.165 72.6919 35.6757C71.4263 35.1854 70.3825 34.4947 69.56 33.6036C68.7377 32.7122 68.1364 31.6572 67.7568 30.4388C67.3774 29.2211 67.1871 27.8834 67.1871 26.4267C67.1871 24.9952 67.3705 23.6576 67.7376 22.4141C68.1039 21.1716 68.6682 20.0914 69.4265 19.1747C70.1861 18.2576 71.1412 17.5295 72.2928 16.9895C73.4437 16.4495 74.8038 16.1791 76.3736 16.1791C77.7146 16.1791 78.8913 16.4055 79.9039 16.8575C80.9157 17.3094 81.7637 17.9312 82.4472 18.7223C83.1303 19.5136 83.6491 20.4555 84.0035 21.5475C84.3575 22.6405 84.5353 23.827 84.5353 25.1082C84.5353 25.4599 84.5218 25.8302 84.4967 26.2192C84.4759 26.5523 84.4507 26.8851 84.4211 27.2175H71.1731L71.1735 27.2181L71.1739 27.2183ZM88.6751 16.6317C88.9393 16.5841 89.2052 16.5465 89.4722 16.5189C89.7247 16.4943 89.991 16.4816 90.2694 16.4816C90.5478 16.4816 90.8258 16.4943 91.1046 16.5189C91.3827 16.5444 91.636 16.5822 91.8639 16.6317C91.9391 17.0086 92.0152 17.5052 92.0908 18.1198C92.1666 18.7353 92.2052 19.256 92.2052 19.6832C92.7365 18.8296 93.4388 18.0882 94.3116 17.4602C95.1847 16.8327 96.3044 16.5183 97.6708 16.5183C97.8732 16.5183 98.0819 16.525 98.2971 16.5376C98.4812 16.5474 98.6654 16.5659 98.8475 16.5936C98.8978 16.8199 98.9366 17.0589 98.9616 17.3096C98.9865 17.5606 98.9992 17.8245 98.9992 18.1006C98.9992 18.4022 98.9804 18.7164 98.9426 19.0422C98.9061 19.3571 98.8618 19.6711 98.8099 19.9839C98.6049 19.9338 98.3944 19.9085 98.1832 19.9086H97.6704C96.9873 19.9086 96.3355 20.0029 95.7156 20.191C95.095 20.3797 94.5387 20.7125 94.0453 21.1893C93.5522 21.6668 93.1596 22.32 92.8691 23.1488C92.5775 23.9777 92.4323 25.0451 92.4323 26.3509V35.9581C92.1244 36.0112 91.814 36.0491 91.5021 36.0709C91.161 36.096 90.8507 36.1082 90.5725 36.1082C90.2621 36.107 89.9518 36.0946 89.6423 36.0709C89.3181 36.0475 88.995 36.0099 88.6741 35.9583V16.6319L88.6751 16.6317ZM62.0334 6.31194C62.0334 6.76287 61.9514 7.21009 61.7912 7.63208C61.3659 7.79103 60.9152 7.87251 60.4607 7.8726H60.4551C60.0007 7.87266 59.5499 7.79124 59.1246 7.63227C58.9642 7.21021 58.882 6.76284 58.882 6.31175V6.30585C58.882 5.84111 58.968 5.39603 59.1236 4.98533C59.549 4.82614 59.9999 4.74471 60.4545 4.745H60.4597C60.9282 4.745 61.3764 4.83028 61.7903 4.98533C61.9506 5.4074 62.0326 5.85478 62.0324 6.30585V6.31175H62.033L62.0334 6.31194ZM66.6718 5.26653H62.9937L65.5942 2.68542C65.1853 2.11544 64.6833 1.61732 64.1088 1.21162L61.5079 3.79273V0.142228C61.1621 0.0844918 60.812 0.0553742 60.4613 0.0551758H60.4545C60.0977 0.0551758 59.7483 0.0854378 59.4077 0.142228V3.79273L56.8062 1.21142C56.5197 1.4138 56.2508 1.63965 56.0023 1.88662L56.0011 1.8878C55.7527 2.13458 55.5253 2.40143 55.3214 2.68561L57.9229 5.26653H54.2441C54.2441 5.26653 54.1566 5.95234 54.1566 6.30684V6.31116C54.1566 6.66566 54.1869 7.01308 54.2443 7.35127H57.9231L55.3212 9.93199C55.7304 10.5019 56.2325 11.0001 56.8068 11.4062L59.4079 8.82526V12.476C59.7481 12.5326 60.097 12.5624 60.4534 12.5628H60.4623C60.8126 12.5625 61.1622 12.5334 61.5077 12.476V8.82526L64.109 11.4068C64.3956 11.2042 64.6647 10.9784 64.9135 10.7316H64.9141C65.1625 10.4845 65.3897 10.2175 65.5936 9.93317L62.9931 7.35146H66.6719C66.729 7.01347 66.7591 6.66723 66.7591 6.31352V6.30448C66.7591 5.95666 66.7298 5.60983 66.6719 5.26692V5.26653H66.6718ZM0 35.4315L10.2493 19.608H1.21453C1.1389 19.156 1.10108 18.6541 1.10108 18.1014C1.10108 17.5741 1.13949 17.0838 1.21532 16.6315H15.8297L16.0198 17.1222L5.69468 32.9826H15.3741C15.4499 33.4851 15.4882 33.9995 15.4882 34.5267C15.4882 35.0298 15.4501 35.5067 15.3743 35.9587H0.19008L0 35.4309V35.4315ZM29.5705 26.8789C29.1909 26.8292 28.71 26.7795 28.1281 26.7286C27.546 26.6789 27.0525 26.6533 26.6482 26.6533C25.0789 26.6533 23.8832 26.9422 23.0613 27.5199C22.2382 28.098 21.8277 28.9766 21.8277 30.157C21.8277 30.9104 21.9663 31.5007 22.2449 31.9276C22.5229 32.3552 22.8712 32.681 23.2888 32.9071C23.7065 33.1331 24.1679 33.2715 24.6738 33.3218C25.1797 33.3719 25.6608 33.3968 26.1162 33.3968C26.6983 33.3968 27.2993 33.3654 27.9194 33.3025C28.5391 33.2402 29.0896 33.1457 29.5707 33.0201V26.8789H29.5705ZM29.5705 23.2251C29.5705 21.7426 29.1909 20.7129 28.432 20.1352C27.6725 19.5575 26.5718 19.2686 25.1294 19.2686C24.2429 19.2686 23.4147 19.3382 22.6431 19.4761C21.8795 19.6121 21.125 19.7944 20.3839 20.0218C19.9028 19.1929 19.6632 18.2016 19.6632 17.0455C20.5225 16.7696 21.4713 16.5562 22.5094 16.4055C23.547 16.2546 24.5465 16.1791 25.5085 16.1791C28.039 16.1791 29.9622 16.751 31.2783 17.8936C32.5938 19.0373 33.2523 20.8642 33.2523 23.3754V35.4688C32.3661 35.6696 31.2909 35.8767 30.0257 36.0903C28.7464 36.3047 27.4512 36.4119 26.1538 36.4107C24.9139 36.4107 23.7937 36.2981 22.7946 36.0719C21.7947 35.8453 20.9468 35.482 20.251 34.9789C19.5545 34.477 19.0175 33.8364 18.6373 33.0581C18.258 32.2793 18.0681 31.3376 18.0681 30.2323C18.0681 29.1527 18.2895 28.2043 18.7324 27.3877C19.1676 26.5808 19.7848 25.8846 20.5358 25.3534C21.2949 24.8142 22.1679 24.4118 23.1549 24.1485C24.1421 23.8845 25.1793 23.7525 26.2675 23.7525C27.0773 23.7525 27.7416 23.7717 28.2605 23.8095C28.7789 23.8468 29.2157 23.8908 29.5701 23.9411V23.2253L29.5705 23.2251ZM41.1099 32.7934C41.5892 32.9691 42.0853 33.0954 42.5906 33.1703C43.0967 33.2459 43.754 33.2835 44.5647 33.2835C45.4755 33.2835 46.3102 33.1394 47.0694 32.8505C47.8289 32.5623 48.4803 32.116 49.0244 31.5129C49.5685 30.9104 49.9986 30.1511 50.315 29.2335C50.6312 28.3173 50.7898 27.2314 50.7898 25.975C50.7898 23.9659 50.4159 22.371 49.6699 21.1904C48.9228 20.0102 47.7018 19.4199 46.0069 19.4199C45.3743 19.4199 44.7664 19.5327 44.1853 19.7591C43.6024 19.9851 43.084 20.3242 42.6284 20.7762C42.173 21.2282 41.8061 21.8 41.5279 22.4905C41.2487 23.1818 41.1101 24.0036 41.1101 24.9583V32.794V32.7936L41.1099 32.7934ZM37.3519 16.6313C37.6093 16.581 37.8687 16.5435 38.13 16.5185C38.4014 16.4936 38.6739 16.4811 38.9464 16.4812C39.1987 16.4812 39.4642 16.4941 39.7432 16.5185C40.0211 16.544 40.2869 16.582 40.5403 16.6315C40.5652 16.6826 40.5973 16.8388 40.6353 17.1027C40.673 17.3666 40.711 17.649 40.7492 17.95C40.7872 18.2517 40.825 18.5411 40.863 18.8166C40.9011 19.0933 40.9201 19.2692 40.9201 19.3445C41.1725 18.943 41.4764 18.5533 41.8309 18.1766C42.1853 17.7997 42.6096 17.4607 43.103 17.1597C43.5964 16.8581 44.1528 16.6197 44.7731 16.4436C45.3929 16.2679 46.0825 16.1793 46.8418 16.1793C47.9803 16.1793 49.0371 16.368 50.0118 16.7449C50.9856 17.1222 51.8202 17.7052 52.5165 18.4965C53.2121 19.2879 53.756 20.2926 54.1486 21.5103C54.5407 22.7295 54.7367 24.1671 54.7367 25.8245C54.7367 29.1395 53.8318 31.7334 52.0221 33.6041C50.2124 35.4755 47.6509 36.4107 44.3358 36.4107C43.7788 36.4107 43.2097 36.3729 42.6276 36.2977C42.0451 36.222 41.5394 36.1214 41.109 35.9964V44.8498C40.7883 44.9016 40.4655 44.9393 40.1415 44.9628C39.7996 44.9874 39.4893 45.0002 39.2109 45.0002C38.9006 44.9988 38.5905 44.9864 38.2811 44.9628C37.9694 44.9409 37.6591 44.9032 37.3513 44.8498V16.6315L37.3519 16.6313Z" fill="#97B1CB"/>
</g>
<defs>
<clipPath id="clip0_331_746">
<rect width="99" height="45" fill="white"/>
</clipPath>
</defs>
</svg>
