<svg width="105" height="24" viewBox="0 0 105 24" fill="none" xmlns="http://www.w3.org/2000/svg">
<path fill-rule="evenodd" clip-rule="evenodd" d="M71.5693 0C70.7773 0.00171233 70.0313 0.479452 69.7257 1.2637L61.9468 21.2911C61.5507 22.3134 62.0543 23.4658 63.0734 23.8647C63.3107 23.9572 63.5531 24 63.7921 24C64.5841 24 65.3335 23.5188 65.6374 22.7346L66.9467 19.3647H76.233L77.544 22.7346C77.8461 23.5188 78.5955 24 79.3893 24C79.6266 24 79.8707 23.9572 80.1079 23.8647C81.1271 23.4658 81.6323 22.3134 81.2329 21.2911L73.4539 1.2637C73.1535 0.486301 72.4177 0.010274 71.6325 0H71.5693ZM71.5898 7.41096L74.6881 15.3904H68.4915L71.5898 7.41096ZM0.0085352 8.3887C0.00341408 8.45548 0 8.52055 0 8.58904V21.9212C0 23.0205 0.885954 23.9092 1.98017 23.9092C3.07609 23.9092 3.96204 23.0205 3.96204 21.9212V15.7534C5.3345 16.637 6.97326 17.1507 8.73492 17.1507C13.5454 17.1507 17.4613 13.3116 17.4613 8.58904C17.4613 3.86644 13.5454 0.0256849 8.73492 0.0256849C3.98765 0.0256849 0.119493 3.75856 0.0085352 8.3887ZM3.96716 8.58904C3.96716 6.05822 6.10437 4.00171 8.73492 4.00171C11.3621 4.00171 13.4993 6.05822 13.4993 8.58904C13.4993 11.1199 11.3621 13.1764 8.73492 13.1764C6.10437 13.1764 3.96716 11.1199 3.96716 8.58904ZM20.7218 1.98459C20.7218 3.08048 21.6231 3.9589 22.7156 3.9589C23.8098 3.9589 24.6838 3.08048 24.6838 1.98459C24.6838 0.916096 23.8098 0.0393835 22.7156 0.0393835C21.6231 0.0393835 20.7218 0.916096 20.7218 1.98459ZM96.0688 2.03767V16.9349C96.0688 20.7808 99.1858 23.9092 103.02 23.9092C104.112 23.9092 105 23.0205 105 21.9212C105 20.8236 104.112 19.9349 103.02 19.9349C101.371 19.9349 100.031 18.589 100.031 16.9349V10.3253H103.02C104.112 10.3253 105 9.43664 105 8.33733C105 7.23973 104.112 6.35103 103.02 6.35103H100.031V2.03767C100.031 0.940069 99.1431 0.0513699 98.0489 0.0513699C96.9564 0.0513699 96.0688 0.940069 96.0688 2.03767ZM87.8186 7.32706C87.4738 6.74486 86.8422 6.35103 86.115 6.35103C85.0225 6.35103 84.1349 7.23973 84.1349 8.33733V22.0017C84.1349 23.0976 85.0225 23.988 86.115 23.988C87.2092 23.988 88.0986 23.0976 88.0986 22.0017V13.5616C88.0986 11.7774 89.6366 10.3253 91.528 10.3253C92.6188 10.3253 93.5082 9.43665 93.5082 8.33733C93.5082 7.23973 92.6188 6.35103 91.528 6.35103C90.1761 6.35103 88.9094 6.70719 87.8186 7.32706ZM48.0771 8.08904C47.0921 9.03425 46.5271 10.3065 46.5271 11.5839C46.5271 15.7705 51.0268 16.774 52.5051 17.1045C55.3798 17.7449 55.3798 18.4452 55.3798 18.7466C55.3798 18.8955 55.2961 19.1387 55.0537 19.3699C54.6287 19.7808 53.9151 19.9863 53.0258 19.9469C52.2405 19.911 51.2419 19.7106 49.7943 18.4743C48.9596 17.762 47.71 17.8596 47.0016 18.6969C46.2915 19.5308 46.3905 20.7842 47.2235 21.4966C49.0518 23.0616 50.8425 23.8305 52.8551 23.9161C52.9797 23.9212 53.1026 23.9247 53.2255 23.9247C55.0452 23.9247 56.6549 23.3339 57.7918 22.2397C58.7768 21.2945 59.3418 20.0205 59.3418 18.7466C59.3418 14.5582 54.8438 13.5548 53.3655 13.2243C50.4891 12.5839 50.4891 11.8819 50.4891 11.5839C50.4891 11.4332 50.5745 11.1901 50.8169 10.9555C51.2436 10.5479 51.9623 10.3545 52.8448 10.3819C53.6301 10.4161 54.6287 10.6164 56.078 11.8562C56.9093 12.5668 58.1588 12.4675 58.869 11.6319C59.5774 10.7979 59.4801 9.54452 58.6488 8.83219C56.8188 7.26712 55.0281 6.5 53.0138 6.41267C52.8875 6.40753 52.7629 6.40411 52.6383 6.40411C50.8271 6.40411 49.2122 6.99829 48.0771 8.08904ZM30.4689 8.97603C30.4587 8.98459 30.4536 8.99315 30.4468 9C27.0754 12.4075 27.0754 17.9247 30.445 21.3339C30.4536 21.3408 30.4587 21.351 30.4689 21.3579C32.1709 23.0651 34.4071 23.9161 36.6399 23.9161C38.8761 23.9161 41.1089 23.0651 42.8108 21.3579C43.5841 20.5839 43.5841 19.3236 42.8108 18.5497C42.0376 17.7723 40.7829 17.774 40.0113 18.5479C38.1523 20.4127 35.1275 20.4127 33.2702 18.5479C33.2685 18.5445 33.2634 18.5428 33.2617 18.5394C31.4146 16.6764 31.4146 13.6558 33.2617 11.7945C33.2634 11.7911 33.2685 11.7894 33.2702 11.7877C35.1275 9.92295 38.1523 9.92295 40.0113 11.7877C40.3971 12.1729 40.9041 12.3699 41.4111 12.3699C41.9181 12.3699 42.4251 12.1729 42.8108 11.786C43.5841 11.0103 43.5841 9.75343 42.8108 8.97603C41.1106 7.27055 38.8744 6.4161 36.6399 6.4161C34.4037 6.4161 32.1692 7.27055 30.4689 8.97603ZM20.72 8.44007V21.9212C20.72 23.0205 21.6094 23.9092 22.7019 23.9092C23.7961 23.9092 24.6838 23.0205 24.6838 21.9212V8.44007C24.6838 7.34247 23.7961 6.45377 22.7019 6.45377C21.6094 6.45377 20.72 7.34247 20.72 8.44007Z" fill="#97B1CB"/>
</svg>
