<svg width="149" height="42" viewBox="0 0 149 42" fill="none" xmlns="http://www.w3.org/2000/svg">
<path d="M46.5498 8.48535H52.6172C55.9991 8.48535 57.7895 9.88293 57.7895 12.4784V12.5783C57.8889 14.1755 56.7948 15.5731 55.3028 15.8726C57.1927 16.0722 58.4857 17.6695 58.3863 19.5662V19.666C58.3863 22.561 56.4964 24.0584 52.9156 24.0584H46.5498V8.48535ZM52.0204 14.8743C53.7114 14.8743 54.4076 14.2753 54.4076 12.8777V12.7779C54.4076 11.4802 53.7114 10.8812 52.0204 10.8812H49.9316V14.8743H52.0204ZM52.4183 21.5627C54.1092 21.5627 54.9049 20.7641 54.9049 19.3665V19.2667C54.9049 17.8691 54.1092 17.0705 52.2194 17.0705H50.0311V21.5627H52.4183Z" fill="#97B1CB"/>
<path d="M59.2812 20.864C59.2812 18.2685 61.6684 17.2702 65.1497 17.2702H66.4428V16.7711C66.4428 15.3735 66.0449 14.6747 64.6524 14.6747C63.7572 14.5749 62.862 15.1738 62.7626 16.1721V16.2719H59.7786C59.9775 13.5766 62.0663 12.3787 64.8513 12.3787C67.6364 12.3787 69.6257 13.4768 69.6257 16.5714V23.9586H66.5423V22.6609C65.7465 23.759 64.4535 24.3579 63.1604 24.2581C60.9722 24.2581 59.2812 23.2598 59.2812 20.864ZM66.4428 20.0654V19.0671H65.2492C63.4588 19.0671 62.3647 19.4664 62.3647 20.6643C62.3647 21.4629 62.862 22.0619 64.0556 22.0619C65.3487 22.0619 66.4428 21.2633 66.4428 20.0654Z" fill="#97B1CB"/>
<path d="M70.8193 20.4647H73.7038C73.8033 21.4629 74.3006 22.0619 75.6932 22.0619C77.0857 22.0619 77.4836 21.5628 77.4836 20.864C77.4836 20.1652 76.7873 19.7659 75.1958 19.4664C72.2119 18.9673 71.0183 18.1686 71.0183 15.8726C71.0183 13.5766 73.1071 12.3787 75.4942 12.3787C77.9809 12.3787 79.8707 13.2771 80.1691 15.8726H77.2846C77.0857 14.9742 76.5884 14.475 75.4942 14.475C74.4001 14.475 73.9028 14.9742 73.9028 15.673C73.9028 16.3718 74.4001 16.6712 76.091 16.8709C78.8761 17.2702 80.4675 17.969 80.4675 20.4647C80.4675 22.9603 78.6771 24.2581 75.6932 24.2581C72.7092 24.2581 70.9188 22.8605 70.8193 20.4647Z" fill="#97B1CB"/>
<path d="M81.3627 18.4681V18.2685C81.1637 15.1738 83.5509 12.4785 86.7338 12.3787H87.2311C90.1156 12.3787 92.8012 14.0757 92.8012 18.1686V19.0671H84.5456C84.645 20.9638 85.6397 22.0619 87.3306 22.0619C88.8226 22.0619 89.5189 21.4629 89.7178 20.4647H92.7018C92.3039 22.9603 90.4141 24.2581 87.3306 24.2581C83.8493 24.2581 81.3627 22.0619 81.3627 18.4681ZM89.6183 17.0705C89.5189 15.3735 88.6237 14.475 87.1317 14.475C85.7391 14.475 84.5456 15.5731 84.5456 17.0705H89.6183Z" fill="#97B1CB"/>
<path d="M93.4976 18.4681V18.2685C93.3982 15.1738 95.7853 12.4785 98.8688 12.3787H99.3661C101.952 12.3787 104.439 13.4768 104.638 16.7711H101.654C101.554 15.673 100.56 14.7745 99.4656 14.8743C97.8741 14.8743 96.78 16.0723 96.78 18.2685V18.4681C96.78 20.7641 97.7747 21.9621 99.565 21.9621C100.858 22.0619 101.952 21.0636 101.952 19.7659H104.737C104.538 22.4612 102.648 24.3579 99.3661 24.3579C96.0837 24.3579 93.4976 22.1617 93.4976 18.4681Z" fill="#97B1CB"/>
<path d="M105.533 20.864C105.533 18.2685 107.92 17.2702 111.401 17.2702H112.694V16.7711C112.694 15.3735 112.296 14.6747 110.904 14.6747C110.009 14.5749 109.113 15.1739 109.014 16.1721V16.3718H106.03C106.229 13.6764 108.318 12.4785 111.103 12.4785C113.888 12.4785 115.877 13.5766 115.877 16.6713V23.9586H112.794V22.6609C111.998 23.759 110.705 24.358 109.412 24.2581C107.224 24.2581 105.533 23.2599 105.533 20.864ZM112.595 20.0654V19.0671H111.401C109.611 19.0671 108.517 19.4664 108.517 20.6643C108.517 21.463 109.014 22.0619 110.208 22.0619C111.6 22.0619 112.595 21.2633 112.595 20.0654Z" fill="#97B1CB"/>
<path d="M117.867 12.678H121.05V14.375C121.746 13.0773 123.039 12.3785 124.531 12.3785C125.923 12.2787 127.216 13.0773 127.714 14.375C128.609 13.0773 130.002 12.3785 131.494 12.3785C133.582 12.3785 135.273 13.6763 135.273 16.7709V23.9585H132.19V17.0704C132.19 15.573 131.593 14.974 130.399 14.974C129.206 14.8742 128.211 15.8725 128.211 16.9706V17.27V23.9585H125.128V17.0704C125.128 15.573 124.431 14.974 123.337 14.974C122.144 14.8742 121.249 15.8725 121.149 16.9706V17.27V23.9585H117.966L117.867 12.678Z" fill="#97B1CB"/>
<path d="M137.362 12.6782H140.445V14.4751C141.241 13.1773 142.634 12.4785 144.026 12.4785C146.811 12.4785 148.999 14.5749 148.999 18.2685V18.4681C148.999 22.2616 146.911 24.358 144.026 24.358C142.534 24.4578 141.142 23.6592 140.445 22.3614V27.9517H137.362V12.6782ZM145.816 18.3683V18.1687C145.816 15.8726 144.722 14.7745 143.131 14.7745C141.539 14.7745 140.346 15.8726 140.346 18.1687V18.3683C140.346 20.6643 141.44 21.7624 143.131 21.7624C144.822 21.7624 145.816 20.5645 145.816 18.3683Z" fill="#97B1CB"/>
<path d="M37.6976 25.6556C36.8024 25.6556 36.1061 24.9568 36.0067 24.0584C35.4099 15.4732 30.735 3.39412 22.0814 3.39412C14.9199 3.39412 9.54872 8.38548 6.06742 18.2684C5.76902 19.1668 4.77436 19.666 3.87917 19.2666C2.98397 18.9672 2.48664 17.9689 2.88451 17.1703C6.86314 5.78998 13.3284 0 22.0814 0C33.52 0 38.7917 14.5748 39.3885 23.8587C39.488 24.7571 38.7917 25.6556 37.7971 25.6556H37.6976Z" fill="#97B1CB"/>
<path d="M21.6836 31.9447C15.9146 31.9447 10.3445 29.449 6.46536 25.0566C5.96803 24.6573 5.86856 23.9585 6.06749 23.3596C7.16162 20.4646 10.0461 13.7762 13.7264 13.6763C15.6162 13.6763 17.0087 15.1737 18.1029 16.3717C18.4013 16.771 18.8986 17.2701 19.2965 17.5696C20.1917 16.6711 21.8826 13.876 23.1756 10.981C23.5735 10.0825 24.5682 9.78307 25.4634 10.1824C26.3585 10.5817 26.6569 11.58 26.2591 12.4784C22.2804 21.1634 20.1917 21.1634 19.3959 21.1634C17.8045 21.1634 16.7104 19.9654 15.6162 18.7675C15.1189 18.2684 14.1242 17.1703 13.7264 17.1703C12.8312 17.2701 10.9413 20.3647 9.64827 23.659C12.9306 26.9533 17.4066 28.7502 21.982 28.6504C25.9607 28.6504 33.0228 27.9516 35.9073 23.659C35.1115 15.0739 30.4367 3.49395 21.982 3.49395C21.0869 3.49395 20.2911 2.69533 20.2911 1.79689C20.2911 0.898445 21.0869 0 22.0815 0C33.5201 0 38.7918 14.5748 39.3886 23.8587C39.3886 24.1582 39.2891 24.5575 39.1897 24.857C36.5041 29.449 30.4367 32.0445 22.0815 32.0445C21.982 31.9447 21.7831 31.9447 21.6836 31.9447Z" fill="#97B1CB"/>
</svg>
