<svg width="137" height="32" viewBox="0 0 137 32" fill="none" xmlns="http://www.w3.org/2000/svg">
<g clip-path="url(#clip0_331_574)">
<path d="M119.017 16C119.017 10.9398 122.884 7.37349 128.008 7.37349C133.133 7.37349 137 10.9398 137 16C137 21.0602 133.133 24.6265 128.008 24.6265C122.884 24.6265 119.017 21.012 119.017 16ZM131.924 16C131.924 13.6386 130.426 11.9036 128.057 11.9036C125.688 11.9036 124.189 13.6386 124.189 16C124.189 18.3614 125.688 20.0964 128.057 20.0964C130.426 20.0964 131.924 18.4096 131.924 16ZM115.633 12C115.971 12.6747 116.116 13.3976 116.116 14.1687C116.116 16 115.15 17.6867 113.603 18.988C115.73 20 116.987 22.4578 116.987 24.7711C116.987 29.1084 113.458 32 108.092 32C102.726 32 99.1969 29.1566 99.1969 24.7711C99.1486 22.3614 100.454 20.1446 102.581 18.988C100.986 17.6867 100.067 16 100.067 14.1687C100.067 10.3614 103.064 7.56626 107.802 7.56626C110.606 7.56626 111.427 8.04819 113.023 8.04819C114.086 8.09639 115.198 7.80723 116.116 7.22892C116.455 7.03614 116.793 6.89157 117.18 6.89157C117.808 6.89157 118.147 7.51807 118.147 8.28916C118.292 9.9759 117.228 11.4699 115.633 12ZM112.007 24.6265C112.007 22.6988 110.509 21.3494 108.14 21.3494C105.771 21.3494 104.273 22.6506 104.273 24.6265C104.273 26.4578 105.916 27.9036 108.14 27.9036C110.364 27.9036 112.007 26.4578 112.007 24.6265ZM104.998 14.4578C105.046 16.1446 106.496 17.494 108.237 17.4458C109.88 17.3976 111.137 16.0964 111.234 14.4578C111.234 12.7229 109.977 11.5181 108.14 11.5181C106.303 11.5181 104.998 12.6747 104.998 14.4578ZM96.8765 16.3373V22.3614C96.8765 23.5181 96.4414 24 95.1845 24H93.4926C92.2357 24 91.8006 23.5181 91.8006 22.3614V16.4819C91.8006 14.988 91.5589 13.9277 91.0272 13.253C90.3987 12.4819 89.4319 12.0964 88.4651 12.1446C87.4499 12.0964 86.4831 12.5301 85.8063 13.253C85.2262 13.9277 84.8394 14.988 84.8394 16.4337V22.3133C84.8394 23.5181 84.3077 23.9518 83.1475 23.9518H81.4555C80.2953 23.9518 79.7636 23.5181 79.7636 22.3133V8.81928C79.7636 8.04819 80.1503 7.71084 80.7304 7.71084C81.6006 7.71084 82.8091 8.43373 83.7276 9.83132C85.1295 8.28916 87.1115 7.42169 89.1902 7.42169C91.6556 7.42169 93.6376 8.28916 94.9428 9.73494C96.2481 11.1807 96.8765 13.1566 96.8765 16.3373ZM70.482 2.74699C70.482 1.20482 71.7872 0 73.2858 0C73.3342 0 73.3342 0 73.3825 0C74.8811 0.0963855 76.0413 1.39759 75.9446 2.89157C75.8479 4.38554 74.5427 5.54217 73.0441 5.44578C71.5939 5.39759 70.482 4.19277 70.482 2.74699ZM70.8204 22.3614V9.68675C70.8204 8.53012 71.2555 8 72.5124 8H74.2043C75.4612 8 75.8963 8.48193 75.8963 9.68675V22.3614C75.8963 23.5181 75.4612 24 74.2043 24H72.5124C71.2555 24 70.8204 23.5181 70.8204 22.3614ZM61.8772 22.3614V6.45783C61.8772 2.45783 64.1009 0.192771 65.9862 0.192771C66.5663 0.192771 66.9531 0.578313 66.9531 1.3012V22.3614C66.9531 23.5663 66.4697 24 65.2611 24H63.5692C62.409 24 61.8772 23.5663 61.8772 22.3614ZM40.9936 16C40.9936 10.9398 44.861 7.37349 49.9852 7.37349C55.1094 7.37349 58.9767 10.9398 58.9767 16C58.9767 21.0602 55.1094 24.6265 49.9852 24.6265C44.861 24.6265 40.9936 21.012 40.9936 16ZM53.8525 16C53.8525 13.6386 52.3539 11.9036 49.9852 11.9036C47.6164 11.9036 46.1179 13.6386 46.1179 16C46.1179 18.3614 47.6164 20.0964 49.9852 20.0964C52.3539 20.0964 53.8525 18.4096 53.8525 16ZM38.3832 9.68675V23.1807C38.3832 23.9518 37.9965 24.2892 37.4164 24.2892C36.5462 24.2892 35.3377 23.5663 34.4675 22.2169C33.114 23.759 31.1803 24.6265 29.1016 24.5783C27.168 24.6265 25.331 23.9518 23.8807 22.6506C22.3821 21.2048 21.5603 18.988 21.5603 15.8072V9.68675C21.5603 8.53012 21.9954 8 23.2523 8H24.9442C26.2011 8 26.6362 8.48193 26.6362 9.68675V15.3735C26.6362 17.3012 26.9746 18.3133 27.603 18.988C28.1831 19.5663 29.0533 19.9036 29.8751 19.8554C30.7936 19.8554 31.6637 19.5181 32.2922 18.8434C32.9206 18.1687 33.259 17.1084 33.259 15.4699V9.68675C33.259 8.48193 33.7908 8 34.951 8H36.6429C37.8514 8 38.3832 8.48193 38.3832 9.68675ZM18.0797 1.3012V23.1807C18.0797 23.9518 17.693 24.2892 17.1129 24.2892C16.2428 24.2892 15.0342 23.5663 14.1641 22.2651C13.1006 23.5181 10.9252 24.6265 8.41143 24.6265C3.38391 24.6265 0 20.9639 0 16C0 11.0361 3.48059 7.37349 8.41143 7.37349C10.055 7.37349 11.6503 7.85542 13.0522 8.77108V6.45783C13.0522 2.45783 15.3243 0.192771 17.1613 0.192771C17.7414 0.192771 18.0797 0.578313 18.0797 1.3012ZM13.0522 16C13.0522 13.5422 11.3119 11.9036 9.13656 11.9036C6.96119 11.9036 5.17255 13.5422 5.17255 16C5.17255 18.4578 6.91284 20.0964 9.13656 20.0964C11.3603 20.0964 13.0522 18.506 13.0522 16Z" fill="#97B1CB"/>
</g>
<defs>
<clipPath id="clip0_331_574">
<rect width="137" height="32" fill="white"/>
</clipPath>
</defs>
</svg>
