<svg width="137" height="35" viewBox="0 0 137 35" fill="none" xmlns="http://www.w3.org/2000/svg">
<g clip-path="url(#clip0_331_577)">
<path d="M66.7685 12.5312C65.9688 12.5145 65.1764 12.6875 64.4564 13.0359C63.7364 13.3843 63.1092 13.8984 62.626 14.5359V7.20898H59.5037V25.9875H62.493V24.2134C62.9172 24.8597 63.503 25.3839 64.1923 25.734C64.8816 26.0841 65.6504 26.2479 66.4225 26.2093C69.6957 26.2093 71.8778 23.6546 71.8778 19.3259C71.8778 14.9971 69.882 12.5312 66.7685 12.5312ZM65.6508 23.6457C63.6816 23.6457 62.5373 22.0313 62.5373 19.2106C62.5373 16.6914 63.8679 15.0947 65.7573 15.0947C67.6466 15.0947 68.6313 16.718 68.6313 19.3791C68.6313 22.191 67.487 23.6457 65.6508 23.6457Z" fill="#97B1CB"/>
<path d="M47.5465 7.20898L40.4502 25.9875H44.0959L45.6127 21.5523H53.0372L54.5274 25.9875H58.1909L51.3252 7.20898H47.5465ZM46.4377 18.9445C48.0876 14.3053 48.7528 12.478 49.3205 10.5886C50.2076 13.3295 51.0946 15.9108 52.1679 18.9445H46.4377Z" fill="#97B1CB"/>
<path d="M122.634 23.761C120.585 23.761 119.361 22.2176 119.361 19.3258C119.361 16.372 120.753 15.0148 122.563 15.0148C123.814 15.0148 124.772 15.6003 125.144 17.3566L127.947 16.3986C127.681 15.2082 126.999 14.152 126.023 13.4201C125.047 12.6883 123.842 12.329 122.625 12.407C118.66 12.407 116.158 15.0681 116.158 19.3791C116.158 23.69 118.607 26.4044 122.465 26.4044C123.682 26.4821 124.889 26.1493 125.895 25.4594C126.9 24.7695 127.644 23.7623 128.009 22.599L125.206 21.641C125.126 22.2548 124.816 22.8153 124.339 23.2089C123.861 23.6026 123.252 23.7999 122.634 23.761Z" fill="#97B1CB"/>
<path d="M114.074 22.4215V17.6138C114.074 15.5381 113.79 14.4471 112.965 13.6665C112.421 13.2026 111.791 12.8509 111.11 12.6317C110.43 12.4125 109.713 12.33 109 12.3892C105.612 12.3892 103.474 13.9858 103.261 16.8244L106.25 17.1171C106.246 16.7979 106.309 16.4815 106.437 16.1888C106.564 15.8961 106.752 15.634 106.989 15.4199C107.226 15.2059 107.506 15.0447 107.81 14.9473C108.114 14.85 108.435 14.8185 108.752 14.8551C109.416 14.7989 110.076 14.9989 110.597 15.414C110.784 15.6326 110.925 15.8867 111.012 16.161C111.099 16.4352 111.13 16.7242 111.103 17.0106V17.7291C109.07 17.7984 107.059 18.166 105.133 18.8202C104.406 19.081 103.78 19.5643 103.344 20.2012C102.907 20.8382 102.683 21.5965 102.702 22.3683C102.702 24.7367 104.414 26.2624 106.836 26.2624C107.656 26.3033 108.474 26.154 109.226 25.8262C109.979 25.4984 110.645 25.0011 111.174 24.373C111.466 25.6947 112.398 26.1471 114.065 26.1471C114.55 26.1566 115.033 26.0846 115.493 25.9342V23.9472C114.296 24.1601 114.074 23.4594 114.074 22.4215ZM111.103 20.4168C111.116 21.1585 110.916 21.8883 110.526 22.5191C110.219 22.9642 109.804 23.3244 109.32 23.5663C108.836 23.8082 108.299 23.924 107.758 23.9029C106.366 23.9029 105.727 23.1844 105.727 22.2264C105.714 21.8657 105.82 21.5107 106.028 21.2159C106.237 20.9211 106.536 20.7027 106.88 20.5942C108.237 20.095 109.666 19.8252 111.111 19.7959L111.103 20.4168Z" fill="#97B1CB"/>
<path d="M81.3779 16.6116L83.6931 15.0415C83.1332 14.1798 82.3566 13.4803 81.4412 13.0133C80.5257 12.5463 79.5037 12.328 78.4773 12.3804C75.1953 12.3804 73.3414 14.3053 73.3414 16.381C73.3414 18.4566 74.6453 19.6009 76.6944 20.2396L78.1048 20.692C80.1006 21.3306 80.553 21.7032 80.553 22.5813C80.553 23.4595 79.8079 23.974 78.4507 23.974C77.7343 23.9766 77.0323 23.7731 76.4283 23.3878C75.8244 23.0025 75.344 22.4516 75.0445 21.8008L72.614 23.3974C73.2252 24.3394 74.0684 25.1083 75.0626 25.6303C76.0569 26.1522 77.1686 26.4097 78.291 26.3779C81.5908 26.3779 83.6132 24.6038 83.6132 22.1467C83.6132 20.0178 82.2827 18.9268 79.9409 18.1816L78.5926 17.7559C76.8895 17.2237 76.4637 16.8688 76.4637 16.0528C76.4637 15.2367 77.1024 14.74 78.433 14.74C79.049 14.7486 79.6506 14.9282 80.1706 15.2586C80.6905 15.5891 81.1085 16.0575 81.3779 16.6116Z" fill="#97B1CB"/>
<path d="M135.283 23.7345C134.325 23.7345 133.935 23.2555 133.935 21.8895V15.2456H136.507V12.753H133.935V8.42432H130.839L130.786 12.753H128.701V15.2456H130.786V22.5016C130.687 23.4952 130.952 24.4909 131.531 25.3046C131.882 25.6589 132.308 25.9298 132.778 26.0972C133.248 26.2645 133.749 26.3241 134.245 26.2715C135.029 26.2647 135.809 26.1634 136.569 25.9699V23.495C136.157 23.646 135.722 23.727 135.283 23.7345Z" fill="#97B1CB"/>
<path d="M89.9998 21.8895V15.2456H92.5633V12.753H89.9998V8.42432H86.904L86.8508 12.753H84.8018V15.2456H86.8863V22.5016C86.7879 23.4952 87.0526 24.4909 87.6314 25.3046C87.9824 25.6589 88.4086 25.9298 88.8784 26.0972C89.3483 26.2645 89.8497 26.3241 90.3457 26.2715C91.1297 26.2647 91.91 26.1634 92.6698 25.9699V23.495C92.2574 23.646 91.8226 23.727 91.3836 23.7345C90.3901 23.7345 89.9998 23.2555 89.9998 21.8895Z" fill="#97B1CB"/>
<path d="M97.309 14.8018V12.7528H94.3286V26.0583H97.451V19.8491C97.3617 18.7921 97.5903 17.7326 98.1074 16.8065C98.4194 16.3534 98.8475 15.9924 99.3469 15.7615C99.8463 15.5305 100.399 15.438 100.946 15.4937C101.333 15.4962 101.718 15.553 102.09 15.6623V12.7528C101.721 12.6344 101.334 12.5775 100.946 12.5843C100.187 12.5466 99.4347 12.7379 98.7862 13.1334C98.1376 13.5288 97.623 14.1101 97.309 14.8018Z" fill="#97B1CB"/>
</g>
<g clip-path="url(#clip1_331_577)">
<path d="M14.2297 16.4935C13.7421 16.4939 13.2606 16.6017 12.8194 16.8092C12.3782 17.0167 11.9881 17.3189 11.677 17.6943C11.3658 18.0697 11.1411 18.509 11.019 18.981C10.8968 19.453 10.8801 19.9462 10.9701 20.4254C11.0896 21.0788 11.4018 21.6814 11.8667 22.1559C12.3316 22.6303 12.9278 22.9547 13.5786 23.0875C14.2294 23.2202 14.905 23.1551 15.5185 22.9006C16.1321 22.6461 16.6554 22.2138 17.0211 21.6594C17.3872 21.1131 17.5827 20.4703 17.5828 19.8126C17.5725 18.9326 17.2217 18.0907 16.6041 17.4637C16.2922 17.1529 15.9217 16.9072 15.5141 16.7406C15.1065 16.5741 14.67 16.4901 14.2297 16.4935Z" fill="#97B1CB"/>
<path d="M17.0211 0C3.40422 0 0 3.40422 0 17.0211C0 30.638 3.40422 34.0422 17.0211 34.0422C30.638 34.0422 34.0422 30.638 34.0422 17.0211C34.0422 3.40422 30.638 0 17.0211 0ZM18.8338 24.4167C17.7733 25.4904 16.3727 26.1624 14.8716 26.3176C13.3704 26.4728 11.8619 26.1018 10.6041 25.2678C9.53594 24.5467 8.70176 23.5291 8.20416 22.3402C7.71491 21.1496 7.58761 19.8411 7.83821 18.5785C8.08513 17.314 8.70457 16.1521 9.61691 15.2424C10.2951 14.5585 11.1163 14.0331 12.0216 13.704C12.9268 13.3749 13.8936 13.2503 14.8527 13.3389C15.8118 13.4276 16.7394 13.7274 17.569 14.2169C18.3985 14.7064 19.1095 15.3734 19.6508 16.17C20.4842 17.4265 20.8549 18.9336 20.6997 20.4332C20.5444 21.9329 19.8728 23.3321 18.7998 24.3912L18.8338 24.4167ZM26.0678 26.0678H22.8763V11.1743H7.98289V7.98289H26.0678V26.0678Z" fill="#97B1CB"/>
</g>
<defs>
<clipPath id="clip0_331_577">
<rect width="96.1191" height="19.1688" fill="white" transform="translate(40.4502 7.20898)"/>
</clipPath>
<clipPath id="clip1_331_577">
<rect width="34.0422" height="34.0422" fill="white"/>
</clipPath>
</defs>
</svg>
