<svg width="108" height="33" viewBox="0 0 108 33" fill="none" xmlns="http://www.w3.org/2000/svg">
<path d="M0 23.3427V0.483643H3.98929V23.3427H0Z" fill="#97B1CB"/>
<path d="M14.2009 6.75928C9.08614 6.75928 5.54663 10.7177 5.54663 15.2485C5.54663 20.3051 9.39721 23.7886 14.2407 23.7886C18.8374 23.7886 22.8263 20.3692 22.8263 15.2376C22.8263 10.9223 19.521 6.75928 14.2009 6.75928ZM14.154 10.6329C16.8307 10.6329 18.8009 12.7301 18.8009 15.263C18.8009 17.9486 16.6287 19.9077 14.2262 19.9077C11.3875 19.9077 9.60097 17.643 9.60097 15.2703C9.60097 12.6696 11.618 10.6329 14.154 10.6329Z" fill="#97B1CB"/>
<path d="M32.8496 6.75928C27.7348 6.75928 24.1953 10.7177 24.1953 15.2485C24.1953 20.3051 28.0459 23.7886 32.8894 23.7886C37.4861 23.7886 41.475 20.3692 41.475 15.2376C41.475 12.2157 40.1749 10.8748 40.1749 10.8748L41.2806 10.4932V7.23425H35.6146C35.6146 7.23425 34.3863 6.75928 32.8496 6.75928ZM32.8026 10.6329C35.4794 10.6329 37.4496 12.7301 37.4496 15.263C37.4496 17.9486 35.2774 19.9077 32.8749 19.9077C30.0362 19.9077 28.2497 17.643 28.2497 15.2703C28.2497 12.6696 30.2666 10.6329 32.8026 10.6329Z" fill="#97B1CB"/>
<path d="M37.4213 24.46C37.4213 27.1455 35.249 29.1192 32.8466 29.1192C30.0078 29.1192 28.2141 26.8327 28.2141 24.46H24.167C24.167 29.5166 28.0176 33.0001 32.861 33.0001C37.4578 33.0001 41.4467 29.5916 41.4467 24.46H37.4213Z" fill="#97B1CB"/>
<path d="M43.0728 23.3425V7.23413H47.062V23.3425H43.0728Z" fill="#97B1CB"/>
<path d="M50.9358 23.3426V10.8423H48.7966V7.23417H50.9358V2.2876H54.9251V7.23417H57.1221V10.8423H54.9251V23.3426H50.9358Z" fill="#97B1CB"/>
<path d="M47.7009 2.65903C47.7009 4.12756 46.5181 5.31805 45.0592 5.31805C43.6002 5.31805 42.4175 4.12756 42.4175 2.65903C42.4175 1.19049 43.6002 0 45.0592 0C46.5181 0 47.7009 1.19049 47.7009 2.65903Z" fill="#97B1CB"/>
<path d="M66.0906 6.74829C60.9516 6.74829 57.6387 10.7088 57.6387 15.3939C57.6387 20.2355 60.9626 23.7995 66.1737 23.7995C71.0348 23.7995 73.426 20.7442 73.426 20.7442L70.7593 18.0563C70.7593 18.0563 68.7457 20.2423 66.2243 20.2423C64.1225 20.2423 62.4419 19.0614 61.8556 16.8961H74.286V15.7903C74.286 11.3784 71.749 6.74829 66.0906 6.74829ZM65.9642 10.2836C67.8019 10.2836 69.6813 11.2733 70.1016 13.6371H61.7472C62.0781 11.9755 63.5223 10.2836 65.9642 10.2836Z" fill="#97B1CB"/>
<path d="M84.2645 23.8014C79.1109 23.8014 75.5994 19.8505 75.5994 15.1922C75.5994 10.3847 79.5681 6.74512 84.2479 6.74512C88.7721 6.74512 91.0878 9.95981 91.0878 9.95981L88.3049 12.7482C88.3049 12.7482 86.6929 10.6518 84.229 10.6518C81.4983 10.6518 79.6311 12.7544 79.6311 15.2538C79.6311 17.8929 81.6173 19.9176 84.1983 19.9176C86.7018 19.9176 88.301 17.8245 88.301 17.8245L91.1117 20.6115C91.1117 20.6115 88.8185 23.8014 84.2645 23.8014Z" fill="#97B1CB"/>
<path d="M92.5632 23.3542V0.425293H96.5525V8.84946C96.5525 8.84946 98.08 6.74519 101.403 6.74519C105.58 6.74519 108 9.87079 108 13.8684V23.3542H104.011V14.4753C104.011 11.7896 102.35 10.6754 100.509 10.6754C98.4127 10.6754 96.5525 11.8764 96.5525 14.6831V23.3542H92.5632Z" fill="#97B1CB"/>
</svg>
