<svg width="115" height="33" viewBox="0 0 115 33" fill="none" xmlns="http://www.w3.org/2000/svg">
<g clip-path="url(#clip0_331_743)">
<path d="M13.6256 22.7732C14.7914 22.7732 15.86 22.5891 16.8316 22.2211L11.6583 16.4087H17.2688L20.3655 19.9035C21.1428 19.0697 21.7378 18.1131 22.1506 17.0341C22.5879 15.9305 22.8065 14.7532 22.8065 13.5025C22.8065 11.7856 22.4058 10.216 21.6043 8.79354C20.8027 7.37112 19.6976 6.25511 18.2888 5.44589C16.8803 4.63655 15.3258 4.23176 13.6256 4.23176C11.9254 4.23176 10.371 4.63655 8.96231 5.44589C7.57786 6.25511 6.47278 7.37112 5.64695 8.79354C4.84545 10.216 4.44475 11.7856 4.44475 13.5025C4.44475 15.2191 4.84545 16.7888 5.64695 18.2112C6.47275 19.6337 7.57786 20.7497 8.96231 21.559C10.371 22.3683 11.9255 22.7732 13.6256 22.7732V22.7732ZM21.677 27.7026L19.7826 25.5689C17.8396 26.5253 15.7872 27.0036 13.6256 27.0036C11.1483 27.0036 8.86521 26.4028 6.77636 25.2009C4.68764 23.9992 3.03599 22.3684 1.82164 20.3082C0.607185 18.2481 0 15.9795 0 13.5025C0 11.0253 0.607197 8.75682 1.82164 6.69662C3.036 4.63655 4.68764 3.00559 6.77636 1.80386C8.86521 0.602131 11.1483 0.00120354 13.6256 0.00120354C16.103 0.00120354 18.386 0.602131 20.4749 1.80386C22.5636 3.00559 24.2151 4.63655 25.4296 6.69662C26.6439 8.75682 27.2511 11.0253 27.2511 13.5025C27.2511 15.3664 26.899 17.1322 26.1947 18.7999C25.4903 20.443 24.4945 21.8778 23.2073 23.104L27.2876 27.7026H21.677Z" fill="#97B1CB"/>
<path d="M38.4336 22.9202C39.4294 22.9202 40.3402 22.675 41.166 22.1845C41.9918 21.694 42.6477 21.0317 43.1334 20.198C43.6193 19.3396 43.862 18.3953 43.862 17.3653C43.862 16.3352 43.6193 15.4032 43.1334 14.5694C42.6477 13.7109 41.9918 13.0366 41.166 12.5459C40.3402 12.0555 39.4294 11.8102 38.4336 11.8102C37.4378 11.8102 36.5271 12.0555 35.7013 12.5459C34.8755 13.0366 34.2198 13.7109 33.7339 14.5694C33.2482 15.4032 33.0053 16.3352 33.0053 17.3653C33.0053 18.3953 33.2482 19.3396 33.7339 20.198C34.2198 21.0317 34.8755 21.6939 35.7013 22.1845C36.5271 22.675 37.4378 22.9202 38.4336 22.9202ZM47.8331 8.38956V26.3789H43.862V24.5762C43.0606 25.3366 42.1618 25.9252 41.166 26.3422C40.1945 26.7344 39.1623 26.9307 38.0694 26.9307C36.3935 26.9307 34.8391 26.5016 33.4061 25.6431C31.9731 24.7846 30.8315 23.6319 29.9815 22.185C29.1557 20.7135 28.7427 19.1071 28.7427 17.3658C28.7427 15.649 29.1557 14.0671 29.9815 12.6202C30.8315 11.1486 31.9731 9.98364 33.4061 9.12529C34.8391 8.26683 36.3935 7.83772 38.0694 7.83772C39.1623 7.83772 40.1945 8.04613 41.166 8.46309C42.1618 8.85547 43.0606 9.43184 43.862 10.1922V8.38952H47.8331" fill="#97B1CB"/>
<path d="M60.098 22.9202C61.0939 22.9202 62.0047 22.6749 62.8305 22.1844C63.6562 21.6939 64.3121 21.0317 64.7978 20.1979C65.2835 19.3396 65.5264 18.3953 65.5264 17.3652C65.5264 16.3352 65.2835 15.4032 64.7978 14.5694C64.3121 13.7109 63.6562 13.0366 62.8305 12.5459C62.0047 12.0555 61.0939 11.8101 60.098 11.8101C59.1023 11.8101 58.1914 12.0555 57.3656 12.5459C56.5398 13.0366 55.8842 13.7109 55.3983 14.5694C54.9126 15.4032 54.6697 16.3352 54.6697 17.3652C54.6697 18.3953 54.9126 19.3396 55.3983 20.1979C55.8842 21.0317 56.5398 21.6939 57.3656 22.1844C58.1914 22.675 59.1023 22.9202 60.098 22.9202ZM60.4624 7.83749C62.1383 7.83749 63.6927 8.2666 65.1256 9.12507C66.5587 9.98341 67.6881 11.1484 68.514 12.62C69.364 14.0668 69.789 15.6488 69.789 17.3656C69.789 19.1068 69.364 20.7133 68.514 22.1848C67.6881 23.6317 66.5587 24.7844 65.1256 25.6429C63.6927 26.5013 62.1383 26.9304 60.4624 26.9304C59.4423 26.9304 58.4586 26.7466 57.5114 26.3786C56.5642 26.0107 55.7142 25.4958 54.9611 24.8335V33.0005H50.6987V8.38904H54.6697V10.1917C55.4712 9.43136 56.3577 8.855 57.3292 8.46261C58.325 8.04566 59.3694 7.83724 60.4624 7.83724" fill="#97B1CB"/>
<path d="M74.4105 5.29836C73.682 5.29836 73.0504 5.0531 72.5161 4.56258C72.0061 4.04762 71.751 3.42226 71.751 2.68648C71.751 1.95071 72.0061 1.3375 72.5161 0.846983C73.0504 0.332027 73.682 0.0744858 74.4105 0.0744858C75.1392 0.0744858 75.7586 0.332027 76.2685 0.846983C76.8029 1.3375 77.07 1.95071 77.07 2.68648C77.07 3.42226 76.8029 4.04762 76.2685 4.56258C75.7586 5.0531 75.1392 5.29836 74.4105 5.29836ZM72.2611 8.38859H76.5237V26.3779H72.2611V8.38859Z" fill="#97B1CB"/>
<path d="M83.6471 12.2517V20.1243C83.6471 20.8846 83.8413 21.4609 84.2298 21.8532C84.6427 22.2458 85.2257 22.4419 85.9786 22.4419H87.9459V26.3782H85.8693C84.5821 26.3782 83.4527 26.1207 82.4811 25.6057C81.5096 25.066 80.7567 24.3427 80.2224 23.4351C79.6881 22.5033 79.4209 21.4608 79.4209 20.3081V0.66387H83.6471V8.38933H87.9459V12.2522H83.6471" fill="#97B1CB"/>
<path d="M98.4664 22.9202C99.4622 22.9202 100.373 22.675 101.199 22.1845C102.025 21.694 102.68 21.0317 103.166 20.198C103.652 19.3396 103.895 18.3953 103.895 17.3653C103.895 16.3352 103.652 15.4032 103.166 14.5694C102.68 13.7109 102.025 13.0366 101.199 12.5459C100.373 12.0555 99.4622 11.8102 98.4664 11.8102C97.4706 11.8102 96.5597 12.0555 95.734 12.5459C94.9082 13.0366 94.2524 13.7109 93.7666 14.5694C93.2809 15.4032 93.038 16.3352 93.038 17.3653C93.038 18.3953 93.2809 19.3396 93.7666 20.198C94.2524 21.0317 94.9082 21.6939 95.734 22.1845C96.5597 22.675 97.4706 22.9202 98.4664 22.9202ZM107.866 8.38956V26.3789H103.895V24.5762C103.093 25.3366 102.195 25.9252 101.199 26.3422C100.227 26.7344 99.195 26.9307 98.102 26.9307C96.4261 26.9307 94.8718 26.5016 93.4388 25.6431C92.0058 24.7846 90.8642 23.6319 90.0142 22.185C89.1884 20.7135 88.7754 19.1071 88.7754 17.3658C88.7754 15.649 89.1884 14.0671 90.0142 12.6202C90.8642 11.1486 92.0058 9.98364 93.4388 9.12529C94.8718 8.26683 96.4261 7.83772 98.102 7.83772C99.195 7.83772 100.227 8.04613 101.199 8.46309C102.195 8.85547 103.093 9.43184 103.895 10.1922V8.38952H107.866" fill="#97B1CB"/>
<path d="M110.729 0.661146H114.992V26.3779H110.729V0.661146Z" fill="#97B1CB"/>
</g>
<defs>
<clipPath id="clip0_331_743">
<rect width="115" height="33" fill="white"/>
</clipPath>
</defs>
</svg>
