<svg width="103" height="436" viewBox="0 0 103 436" fill="none" xmlns="http://www.w3.org/2000/svg">
<path fill-rule="evenodd" clip-rule="evenodd" d="M233.5 0.999512H202.5V138.259L151.082 10.9941L122.339 22.607L175.089 153.168L75.518 53.5971L53.5978 75.5175L149.032 170.952L25.3563 116.917L12.945 145.324L143.809 202.499H1V233.5H143.809L12.945 290.675L25.3563 319.082L149.032 265.047L53.5978 360.482L75.518 382.401L175.089 282.83L122.339 413.393L151.082 425.004L202.5 297.741V435H233.5V297.741L284.918 425.004L313.66 413.393L260.912 282.83L360.482 382.401L382.401 360.482L286.967 265.047L410.644 319.082L423.054 290.675L292.192 233.5H435V202.499H292.19L423.054 145.324L410.644 116.917L286.967 170.952L382.401 75.5173L360.482 53.5971L260.912 153.168L313.66 22.607L284.918 10.9941L233.5 138.259V0.999512Z" stroke="url(#paint0_linear_331_374)" stroke-width="1.5"/>
<defs>
<linearGradient id="paint0_linear_331_374" x1="-13.6251" y1="68.489" x2="334.901" y2="491.889" gradientUnits="userSpaceOnUse">
<stop stop-color="#233E59"/>
<stop offset="1" stop-color="#2A3B4B" stop-opacity="0"/>
</linearGradient>
</defs>
</svg>
