<svg width="201" height="360" viewBox="0 0 201 360" fill="none" xmlns="http://www.w3.org/2000/svg">
<path fill-rule="evenodd" clip-rule="evenodd" d="M33.786 1H8.21421V114.223L-34.1998 9.24442L-57.9093 18.8237L-14.3964 126.522L-96.5312 44.3869L-114.613 62.4688L-35.8903 141.191L-137.909 96.6184L-148.147 120.051L-40.1992 167.214H-158V192.786H-40.1994L-148.147 239.949L-137.909 263.382L-35.8905 218.809L-114.613 297.531L-96.5312 315.612L-14.3964 233.478L-57.9093 341.177L-34.1998 350.755L8.21421 245.777V359H33.786V245.777L76.2 350.755L99.9086 341.177L56.3972 233.478L138.531 315.612L156.612 297.531L77.8898 218.809L179.909 263.382L190.146 239.949L82.2001 192.786H200V167.214H82.1983L190.146 120.051L179.909 96.6184L77.8898 141.191L156.612 62.4686L138.531 44.3869L56.3972 126.522L99.9086 18.8237L76.2 9.24442L33.786 114.223V1Z" stroke="url(#paint0_linear_1030_292)" stroke-width="1.5"/>
<defs>
<linearGradient id="paint0_linear_1030_292" x1="-170.064" y1="56.6711" x2="117.43" y2="405.928" gradientUnits="userSpaceOnUse">
<stop stop-color="#708CFF"/>
<stop offset="1" stop-color="#5374F4" stop-opacity="0"/>
</linearGradient>
</defs>
</svg>
