<svg width="294" height="294" viewBox="0 0 294 294" fill="none" xmlns="http://www.w3.org/2000/svg">
<path fill-rule="evenodd" clip-rule="evenodd" d="M157.429 1H136.571V93.3495L101.977 7.7245L82.6382 15.5377L118.129 103.381L51.1365 36.3882L36.3884 51.1365L100.598 115.346L17.3872 78.9904L9.0367 98.103L97.0833 136.571H1V157.429H97.0832L9.03673 195.897L17.3872 215.01L100.598 178.654L36.3884 242.864L51.1365 257.611L118.129 190.619L82.6382 278.463L101.977 286.275L136.571 200.651V293H157.429V200.651L192.023 286.275L211.361 278.463L175.872 190.619L242.864 257.611L257.611 242.864L193.402 178.654L276.613 215.01L284.963 195.897L196.917 157.429H293V136.571H196.916L284.963 98.103L276.613 78.9904L193.402 115.346L257.611 51.1364L242.864 36.3882L175.872 103.381L211.361 15.5377L192.023 7.7245L157.429 93.3495V1Z" stroke="url(#paint0_linear_331_274)" stroke-width="1.5"/>
<defs>
<linearGradient id="paint0_linear_331_274" x1="-8.83994" y1="46.4077" x2="225.652" y2="331.276" gradientUnits="userSpaceOnUse">
<stop stop-color="#233E59"/>
<stop offset="1" stop-color="#2A3B4B" stop-opacity="0"/>
</linearGradient>
</defs>
</svg>
