<svg width="128" height="128" viewBox="0 0 128 128" fill="none" xmlns="http://www.w3.org/2000/svg">
<path d="M68.9095 4.8951C66.3179 1.90836 61.6821 1.90836 59.0905 4.8951L50.8605 14.38C49.5253 15.9188 47.4489 16.5934 45.4642 16.1334L33.2309 13.2974C29.3786 12.4044 25.6283 15.1292 25.2872 19.0688L24.204 31.5798C24.0283 33.6095 22.745 35.3758 20.8689 36.1701L9.305 41.0664C5.6636 42.6082 4.23108 47.0171 6.27079 50.4048L12.7483 61.163C13.7991 62.9084 13.7991 65.0916 12.7482 66.837L6.27079 77.5952C4.23108 80.9829 5.6636 85.3918 9.30501 86.9336L20.8689 91.8299C22.745 92.6242 24.0283 94.3905 24.204 96.4202L25.2872 108.931C25.6283 112.871 29.3787 115.596 33.2309 114.703L45.4642 111.867C47.4489 111.407 49.5253 112.081 50.8605 113.62L59.0905 123.105C61.6821 126.092 66.3179 126.092 68.9095 123.105L77.1395 113.62C78.4747 112.081 80.5511 111.407 82.5358 111.867L94.7691 114.703C98.6214 115.596 102.372 112.871 102.713 108.931L103.796 96.4202C103.972 94.3905 105.255 92.6242 107.131 91.8299L118.695 86.9336C122.336 85.3918 123.769 80.9829 121.729 77.5952L115.252 66.837C114.201 65.0916 114.201 62.9084 115.252 61.163L121.729 50.4048C123.769 47.0171 122.336 42.6082 118.695 41.0664L107.131 36.1701C105.255 35.3758 103.972 33.6095 103.796 31.5798L102.713 19.0688C102.372 15.1292 98.6213 12.4044 94.7691 13.2974L82.5358 16.1334C80.5511 16.5934 78.4747 15.9188 77.1395 14.38L68.9095 4.8951Z" fill="#0C1620" stroke="url(#paint0_linear_331_281)"/>
<g clip-path="url(#clip0_331_281)">
<path d="M49.0318 69.3731L49.1274 68.7919H48.5384H48.486C46.9941 68.6558 45.5447 68.2185 44.225 67.5059C42.8987 66.7898 41.7309 65.8106 40.7924 64.6277C39.8538 63.4447 39.1641 62.0825 38.7651 60.6237C38.3661 59.1649 38.2662 57.6398 38.4714 56.141C38.6766 54.6422 39.1827 53.2009 39.9589 51.9046C40.7351 50.6082 41.7651 49.4837 42.9866 48.5992C44.208 47.7147 45.5955 47.0886 47.0648 46.7586C48.5319 46.4291 50.0503 46.4018 51.5282 46.6782C54.46 47.3109 57.0613 48.9975 58.8426 51.4216C60.6253 53.8476 61.4637 56.8447 61.1994 59.8486L61.1994 59.8486L61.199 59.8539C60.6699 66.7063 56.1893 75.5087 45.9411 81.5228C45.8442 81.5698 45.7355 81.586 45.6293 81.5691C45.5192 81.5517 45.4171 81.4996 45.3379 81.42C45.2585 81.3403 45.2061 81.2372 45.1885 81.1252C45.171 81.0138 45.189 80.8997 45.2397 80.7993C47.0961 77.2153 48.376 73.3589 49.0318 69.3731Z" stroke="url(#paint1_linear_331_281)"/>
<path d="M76.8153 69.252L77.3034 69.2919V69.3859V69.9325L77.2021 69.9235C76.5217 73.7138 75.2755 77.3805 73.5047 80.7993M76.8153 69.252L73.0597 80.5713M76.8153 69.252L76.8478 68.8879C75.3481 68.7541 73.8911 68.316 72.5648 67.5999C71.2386 66.8838 70.0708 65.9046 69.1322 64.7217C68.1937 63.5387 67.5039 62.1765 67.105 60.7177C66.706 59.2589 66.606 57.7338 66.8113 56.235C67.0165 54.7362 67.5226 53.2949 68.2987 51.9986C69.0749 50.7022 70.105 49.5777 71.3264 48.6932C72.5479 47.8087 73.9353 47.1825 75.4046 46.8526C76.8712 46.5232 78.3891 46.4958 79.8665 46.7719C82.7677 47.4183 85.3385 49.0977 87.1031 51.5006C88.8695 53.9057 89.7084 56.8725 89.4642 59.8516L89.464 59.8539C88.9349 66.7063 84.4543 75.5087 74.2061 81.5228M76.8153 69.252L74.4449 81.9624M73.5047 80.7993C73.5043 80.8 73.504 80.8006 73.5036 80.8013L73.0597 80.5713M73.5047 80.7993C73.5049 80.7989 73.5051 80.7984 73.5053 80.798L73.0597 80.5713M73.5047 80.7993C73.4539 80.8997 73.436 81.0138 73.4535 81.1252C73.4711 81.2372 73.5235 81.3403 73.6028 81.42C73.6821 81.4996 73.7842 81.5517 73.8943 81.5691C74.0005 81.586 74.1092 81.5698 74.2061 81.5228M73.0597 80.5713C72.9607 80.7659 72.9256 80.987 72.9596 81.2029C72.9935 81.4187 73.0946 81.6182 73.2485 81.7728C73.4024 81.9273 73.601 82.0289 73.816 82.063C74.0309 82.097 74.2511 82.0618 74.4449 81.9624M74.2061 81.5228C74.2014 81.5256 74.1967 81.5283 74.192 81.5311L74.4449 81.9624M74.2061 81.5228C74.2096 81.5211 74.2131 81.5193 74.2166 81.5175L74.4449 81.9624" stroke="url(#paint2_linear_331_281)"/>
</g>
<defs>
<linearGradient id="paint0_linear_331_281" x1="17.6001" y1="12.16" x2="95.3602" y2="111.68" gradientUnits="userSpaceOnUse">
<stop stop-color="#FFC978"/>
<stop offset="1" stop-color="#FFF5F1"/>
</linearGradient>
<linearGradient id="paint1_linear_331_281" x1="41.1511" y1="49.4176" x2="63.4359" y2="68.2907" gradientUnits="userSpaceOnUse">
<stop stop-color="#FFC978"/>
<stop offset="1" stop-color="#FFF5F1"/>
</linearGradient>
<linearGradient id="paint2_linear_331_281" x1="69.4798" y1="49.5026" x2="91.7035" y2="68.309" gradientUnits="userSpaceOnUse">
<stop stop-color="#FFC978"/>
<stop offset="1" stop-color="#FFF5F1"/>
</linearGradient>
<clipPath id="clip0_331_281">
<rect width="52" height="36" fill="white" transform="translate(38 46)"/>
</clipPath>
</defs>
</svg>
