<svg width="176" height="176" viewBox="0 0 176 176" fill="none" xmlns="http://www.w3.org/2000/svg">
<path fill-rule="evenodd" clip-rule="evenodd" d="M94.2144 1H81.7857V56.0302L61.171 5.00706L49.6474 9.66289L70.7962 62.0078L30.8759 22.0875L22.0876 30.8759L60.3494 69.1376L10.765 47.4737L5.78899 58.8627L58.2551 81.7857H1V94.2144H58.2551L5.78901 117.137L10.765 128.526L60.3493 106.862L22.0876 145.124L30.8759 153.912L70.7962 113.992L49.6474 166.337L61.171 170.993L81.7857 119.97V175H94.2144V119.97L114.829 170.993L126.352 166.337L105.204 113.992L145.124 153.912L153.912 145.124L115.65 106.862L165.235 128.526L170.211 117.137L117.745 94.2144H175V81.7857H117.744L170.211 58.8627L165.235 47.4737L115.65 69.1376L153.912 30.8758L145.124 22.0875L105.204 62.0077L126.352 9.66289L114.829 5.00706L94.2144 56.0302V1Z" stroke="url(#paint0_linear_487_1068)" stroke-width="1.5"/>
<defs>
<linearGradient id="paint0_linear_487_1068" x1="-4.86352" y1="28.058" x2="134.868" y2="197.808" gradientUnits="userSpaceOnUse">
<stop stop-color="#233E59"/>
<stop offset="1" stop-color="#2A3B4B" stop-opacity="0"/>
</linearGradient>
</defs>
</svg>
