<svg width="134" height="234" viewBox="0 0 134 234" fill="none" xmlns="http://www.w3.org/2000/svg">
<path d="M82.9524 127.029L83.0479 126.448H82.459H82.3407C79.4723 126.189 76.6855 125.348 74.1486 123.978C71.6051 122.603 69.3655 120.724 67.5657 118.454C65.7659 116.184 64.4433 113.57 63.6783 110.77C62.9132 107.971 62.7216 105.044 63.1151 102.168C63.5086 99.2923 64.479 96.5265 65.9674 94.0387C67.4558 91.551 69.4311 89.393 71.7736 87.6954C74.1161 85.9979 76.7769 84.7961 79.5949 84.1628C82.4108 83.53 85.3251 83.4779 88.1615 84.0096C93.7757 85.2207 98.7567 88.452 102.167 93.0965C105.579 97.7428 107.183 103.483 106.678 109.236L106.677 109.241C105.671 122.279 97.1623 138.953 77.7889 150.326C77.5221 150.459 77.2206 150.506 76.9261 150.46C76.6273 150.412 76.3508 150.271 76.1363 150.055C75.9218 149.84 75.7805 149.561 75.7331 149.259C75.6857 148.958 75.7345 148.649 75.8722 148.377C79.3383 141.681 81.7279 134.476 82.9524 127.029ZM74.9831 147.92L74.9815 147.923C74.7478 148.383 74.6652 148.905 74.7452 149.414C74.8252 149.924 75.0639 150.395 75.4274 150.761C75.791 151.126 76.2608 151.367 76.7694 151.447C77.2781 151.528 77.799 151.445 78.2573 151.209L78.2698 151.203L78.282 151.196C97.9246 139.671 106.64 122.711 107.674 109.32C108.2 103.327 106.528 97.3464 102.973 92.5046C99.4173 87.6619 94.2221 84.2922 88.3655 83.0306L88.3655 83.0305L88.3525 83.028C85.3803 82.4698 82.3264 82.524 79.3757 83.1871C76.4249 83.8503 73.6391 85.1086 71.1868 86.8857C68.7345 88.6628 66.6669 90.9217 65.1092 93.5253C63.5515 96.129 62.5361 99.0233 62.1243 102.033C61.7126 105.042 61.913 108.105 62.7136 111.034C63.5142 113.963 64.8983 116.699 66.7821 119.075C68.6659 121.451 71.0103 123.419 73.6732 124.857C76.2183 126.233 79.0038 127.098 81.8747 127.406C80.6419 134.559 78.3176 141.478 74.9831 147.92ZM136.049 126.948L135.568 126.909L135.593 126.626C132.717 126.37 129.922 125.529 127.379 124.154C124.835 122.78 122.596 120.901 120.796 118.631C118.996 116.36 117.674 113.746 116.909 110.947C116.144 108.148 115.952 105.221 116.345 102.345C116.739 99.469 117.709 96.7032 119.198 94.2155C120.686 91.7277 122.661 89.5697 125.004 87.8721C127.346 86.1746 130.007 84.9728 132.825 84.3395C135.641 83.7068 138.554 83.6546 141.39 84.1861C146.947 85.423 151.87 88.6409 155.249 93.245C158.629 97.8515 160.235 103.534 159.767 109.239L159.767 109.241C158.761 122.279 150.252 138.953 130.879 150.325C130.612 150.459 130.31 150.506 130.016 150.46C129.717 150.412 129.441 150.271 129.226 150.055C129.012 149.84 128.87 149.561 128.823 149.259C128.776 148.958 128.824 148.649 128.962 148.377C132.33 141.871 134.682 134.884 135.935 127.661L136.049 127.671V127.124V126.948ZM126.904 125.034C129.399 126.383 132.125 127.241 134.937 127.565C133.697 134.661 131.383 141.526 128.073 147.92L128.071 147.923C127.838 148.383 127.755 148.905 127.835 149.414C127.915 149.924 128.154 150.395 128.517 150.761C128.881 151.126 129.35 151.367 129.859 151.447C130.368 151.528 130.889 151.445 131.347 151.209L131.36 151.203L131.372 151.196C151.014 139.671 159.73 122.711 160.764 109.32C161.251 103.376 159.578 97.4544 156.055 92.6534C152.531 87.8523 147.396 84.4965 141.599 83.2081L141.591 83.2063L141.583 83.2048C138.611 82.6466 135.557 82.7007 132.606 83.3639C129.655 84.027 126.869 85.2853 124.417 87.0624C121.965 88.8395 119.897 91.0984 118.34 93.702C116.782 96.3057 115.766 99.2 115.355 102.21C114.943 105.219 115.143 108.281 115.944 111.211C116.745 114.14 118.129 116.876 120.013 119.252C121.896 121.628 124.241 123.595 126.904 125.034ZM107.141 2.49059C109.442 -0.163534 113.558 -0.163529 115.859 2.4906L137.065 26.9476C138.709 28.8436 141.266 29.675 143.709 29.108L175.23 21.7955C178.65 21.002 181.981 23.4231 182.284 26.9246L185.075 59.1843C185.291 61.6849 186.871 63.8613 189.181 64.84L218.976 77.4651C222.21 78.8352 223.482 82.7534 221.671 85.7643L204.981 113.505C203.687 115.655 203.687 118.345 204.981 120.495L221.671 148.236C223.482 151.247 222.21 155.165 218.976 156.535L189.181 169.16C186.871 170.139 185.291 172.315 185.075 174.816L182.284 207.075C181.981 210.577 178.65 212.998 175.23 212.204L143.709 204.892C141.266 204.325 138.709 205.156 137.065 207.052L115.859 231.509C113.558 234.164 109.442 234.164 107.141 231.509L85.935 207.052C84.2911 205.156 81.7344 204.325 79.2906 204.892L47.7701 212.204C44.3498 212.998 41.0193 210.577 40.7163 207.075L37.9254 174.816C37.7091 172.315 36.1292 170.139 33.8192 169.16L4.02359 156.535C0.790183 155.165 -0.482288 151.247 1.32922 148.236L18.0191 120.495C19.3128 118.345 19.3128 115.655 18.0191 113.505L1.32921 85.7643C-0.482292 82.7534 0.790173 78.8352 4.02358 77.4651L33.8192 64.84C36.1292 63.8612 37.7091 61.6849 37.9254 59.1843L40.7163 26.9245C41.0193 23.423 44.3498 21.002 47.7701 21.7955L79.2906 29.108C81.7344 29.675 84.2911 28.8436 85.935 26.9476L107.141 2.49059Z" stroke="url(#paint0_linear_1030_306)"/>
<defs>
<linearGradient id="paint0_linear_1030_306" x1="62.7189" y1="-18.8296" x2="121.862" y2="234.305" gradientUnits="userSpaceOnUse">
<stop stop-color="#BDEFFF" stop-opacity="0.5"/>
<stop offset="1" stop-color="#BDEFFF" stop-opacity="0.08"/>
</linearGradient>
</defs>
</svg>
