<svg width="463" height="442" viewBox="0 0 463 442" fill="none" xmlns="http://www.w3.org/2000/svg">
<path d="M-16.0953 222.896H22.3136C22.3136 222.896 21.3534 263.945 50.6402 271.627C62.643 277.389 81.3673 283.15 78.9667 321.079C79.9269 321.559 34.3164 321.079 34.3164 321.079C34.3164 321.079 39.1175 299.474 18.9528 292.272C-1.21181 285.07 -18.0157 254.823 -16.0953 222.896Z" fill="#727096"/>
<path d="M34.3164 321.079L112.334 321.53C116.746 321.555 121.109 322.46 125.167 324.191C129.225 325.922 132.897 328.444 135.969 331.611C139.041 334.778 141.451 338.525 143.058 342.634C144.664 346.743 145.436 351.13 145.328 355.541L143.945 410.36H101.052L103.28 374.745C103.362 373.41 103.17 372.071 102.716 370.812C102.262 369.553 101.554 368.401 100.638 367.426C99.7209 366.45 98.6143 365.673 97.3859 365.142C96.1574 364.611 94.8333 364.337 93.4949 364.337H53.5208C50.9989 364.337 48.5016 363.84 46.1716 362.875C43.8416 361.91 41.7246 360.495 39.9413 358.712C38.158 356.928 36.7434 354.811 35.7783 352.481C34.8131 350.151 34.3164 347.654 34.3164 345.132V321.079Z" fill="#081E32"/>
<path d="M104.565 422.095H134.015C134.015 422.095 134.015 437.266 148.735 433.905C149.378 435.029 183.946 433.742 169.86 455.827C169.86 455.51 139.133 458.065 115.454 454.867C114.81 454.233 100.724 456.49 104.565 439.292V422.095Z" fill="#081E32"/>
<path d="M40.9803 267.307C40.9803 267.307 44.5812 290.112 34.3164 294.501" stroke="#B1DAFF" stroke-width="0.796709" stroke-linecap="round" stroke-linejoin="round"/>
<path d="M77.2012 308.597L103.905 306.571" stroke="#B1DAFF" stroke-width="0.796709" stroke-linecap="round" stroke-linejoin="round"/>
<path d="M41.5947 230.713C41.5947 230.713 64.5632 206.707 64.8801 164.938" stroke="#B1DAFF" stroke-width="0.796709" stroke-linecap="round" stroke-linejoin="round"/>
<path d="M80.7335 190.038C80.7335 190.038 83.4029 204.998 67.8281 226.526" stroke="#B1DAFF" stroke-width="0.796709" stroke-linecap="round" stroke-linejoin="round"/>
<path d="M-12.7334 194.224C-12.7334 194.224 -5.85821 198.401 9.50534 201.099" stroke="#B1DAFF" stroke-width="0.796709" stroke-linecap="round" stroke-linejoin="round"/>
<path d="M-1.61426 216.733C-1.61426 216.733 4.22389 207.668 9.50511 208.148" stroke="#B1DAFF" stroke-width="0.796709" stroke-linecap="round" stroke-linejoin="round"/>
<path d="M57.9957 272.089C62.8268 272.089 66.7433 267.532 66.7433 261.91C66.7433 256.289 62.8268 251.732 57.9957 251.732C53.1645 251.732 49.248 256.289 49.248 261.91C49.248 267.532 53.1645 272.089 57.9957 272.089Z" stroke="#B1DAFF" stroke-width="0.796709" stroke-linecap="round" stroke-linejoin="round"/>
<path d="M60.8475 258.559C60.8475 258.559 56.3441 259.999 49.248 258.559" stroke="#B1DAFF" stroke-width="0.796709" stroke-linecap="round" stroke-linejoin="round"/>
<path d="M57.9961 261.91L66.4172 259.203" stroke="#B1DAFF" stroke-width="0.796709" stroke-linecap="round" stroke-linejoin="round"/>
<path d="M109.377 407.874V422.546" stroke="#B1DAFF" stroke-width="0.796709" stroke-linecap="round" stroke-linejoin="round"/>
<path d="M129.053 403.073V422.546" stroke="#B1DAFF" stroke-width="0.796709" stroke-linecap="round" stroke-linejoin="round"/>
<path d="M112.25 448.683C112.25 448.683 106.968 428.519 118.011 425.542C127.133 427.078 128.093 441.693 127.133 451.67" stroke="#B1DAFF" stroke-width="0.796709" stroke-linecap="round" stroke-linejoin="round"/>
<path d="M-12.7334 234.659C-12.7334 234.659 -11.5811 183.095 -1.21073 169.527C-0.738169 168.912 -0.106138 168.438 0.616708 168.157C1.33955 167.876 2.12558 167.799 2.88942 167.933V167.933C3.98417 168.117 4.9632 168.723 5.61658 169.62C6.26996 170.518 6.54568 171.636 6.38462 172.734C5.62605 177.718 4.06089 185.918 1.49709 190.018C1.64113 190.383 6.79752 174.251 10.504 167.069C10.9363 166.224 11.6661 165.569 12.5526 165.23C13.4391 164.892 14.4196 164.893 15.3051 165.235H15.3915C16.2966 165.565 17.0448 166.222 17.4876 167.078C17.9305 167.933 18.0357 168.924 17.7825 169.853C16.2365 175.615 12.8373 187.291 9.52455 191.785L19.05 171.467C19.2677 171.006 19.5747 170.594 19.9533 170.253C20.3319 169.913 20.7744 169.651 21.2551 169.483C21.7358 169.315 22.2452 169.244 22.7535 169.275C23.2618 169.305 23.7589 169.437 24.2159 169.661C25.0054 170.052 25.6365 170.702 26.0036 171.503C26.3708 172.304 26.4515 173.206 26.2324 174.059C24.8305 179.628 21.6041 191.276 18.4738 194.281C18.349 194.387 23.1021 185.447 26.4821 180.061C26.799 179.543 27.2205 179.098 27.7196 178.754C28.2187 178.409 28.7844 178.173 29.3803 178.06C29.9762 177.947 30.5891 177.959 31.1798 178.097C31.7704 178.235 32.3257 178.495 32.8099 178.86L32.906 178.928C33.7207 179.546 34.2915 180.432 34.5181 181.429C34.7446 182.427 34.6124 183.472 34.1446 184.382C31.3792 189.768 25.349 200.225 18.4738 204.306C18.5986 204.565 26.8758 198.91 31.2736 195.386C32.0137 194.8 32.9168 194.459 33.8589 194.407C34.801 194.355 35.736 194.597 36.5356 195.098L36.6412 195.165C37.1856 195.512 37.6498 195.971 38.0029 196.511C38.356 197.051 38.5899 197.661 38.6889 198.299C38.788 198.936 38.7499 199.588 38.5773 200.21C38.4047 200.832 38.1015 201.41 37.6879 201.906C34.2255 206.122 30.049 209.697 25.349 212.468C17.1871 217.269 13.9896 222.426 13.0294 230.712" stroke="#B1DAFF" stroke-width="0.796709" stroke-linecap="round" stroke-linejoin="round"/>
<path d="M137.387 319.859C137.387 319.859 141.363 329.98 137.387 337.239C135.179 341.272 131.319 346.39 130.608 350.683C129.581 356.828 138.914 358.508 140.268 352.43C141.091 348.061 141.509 343.625 141.516 339.179L143.706 367.592C143.778 368.535 144.204 369.417 144.899 370.059C145.593 370.702 146.504 371.059 147.45 371.058V371.058C148.184 371.058 148.887 370.767 149.406 370.248C149.924 369.73 150.216 369.026 150.216 368.293V345.468L151.954 372.355C152 373.133 152.342 373.865 152.91 374.4C153.477 374.936 154.227 375.234 155.007 375.235V375.235C155.751 375.237 156.47 374.968 157.03 374.479C157.59 373.989 157.953 373.313 158.051 372.576C158.704 367.669 159.319 356.405 154.383 342.396" stroke="#B1DAFF" stroke-width="0.796709" stroke-linecap="round" stroke-linejoin="round"/>
<path d="M157.552 309.374C157.552 309.374 178.475 344.307 174.02 361.965C173.605 363.686 172.681 365.242 171.369 366.43C169.593 368.005 167.039 368.869 166.098 362.263C165.301 361.543 166.098 350.02 162.18 345.565" stroke="#B1DAFF" stroke-width="0.796709" stroke-linecap="round" stroke-linejoin="round"/>
<path d="M60.8477 276.679L123.771 275.45C134.957 275.232 145.846 279.063 154.431 286.237C163.017 293.411 168.722 303.445 170.495 314.492L170.822 316.518C164.857 319.986 158.262 322.232 151.42 323.125C144.579 324.019 137.628 323.542 130.973 321.723C131.741 320.292 133.018 310.728 128.092 303.795" stroke="#B1DAFF" stroke-width="0.796709" stroke-linecap="round" stroke-linejoin="round"/>
<path d="M0.798662 412.674C11.5093 412.674 20.1921 396.454 20.1921 376.446C20.1921 356.438 11.5093 340.218 0.798662 340.218C-9.91201 340.218 -18.5947 356.438 -18.5947 376.446C-18.5947 396.454 -9.91201 412.674 0.798662 412.674Z" fill="#727096"/>
<path d="M16.0535 357.459C16.0535 357.459 25.1623 385.349 13.1553 401.496" stroke="#B1DAFF" stroke-width="0.796709" stroke-linecap="round" stroke-linejoin="round"/>
<path d="M4.34473 340.832C4.34473 340.832 16.0536 352.035 67.9487 369.615C67.9487 369.615 113.211 381.854 111.008 417.643C108.806 453.432 82.7712 468.338 24.3343 470.176" stroke="#B1DAFF" stroke-width="0.796709" stroke-linecap="round" stroke-linejoin="round"/>
<path d="M22.1234 467.501C22.1234 467.501 87.8059 467.203 82.2909 423.862C71.261 380.571 10.6049 404.634 7.76465 413.023" stroke="#B1DAFF" stroke-width="0.796709" stroke-linecap="round" stroke-linejoin="round"/>
<path d="M80.0879 391.997C80.0879 391.997 103.001 408.029 89.4782 436.473" stroke="#B1DAFF" stroke-width="0.796709" stroke-linecap="round" stroke-linejoin="round"/>
<path d="M131.021 549.541C131.886 551.589 133.324 553.344 135.161 554.597C136.999 555.849 139.16 556.545 141.383 556.602L131.021 549.541ZM131.021 549.541C130.301 547.884 129.627 546.202 128.997 544.493L131.021 549.541ZM141.489 556.204H141.388C139.243 556.148 137.159 555.476 135.386 554.268C133.611 553.058 132.223 551.363 131.388 549.386L131.386 549.382C130.67 547.732 129.998 546.057 129.371 544.355L129.371 544.355C125.065 532.701 122.95 520.354 123.13 507.932L123.13 507.932C123.879 453.261 168.747 408.719 223.464 408.335L223.465 408.335C242.042 408.199 260.298 413.184 276.225 422.741C292.041 432.232 304.954 445.867 313.566 462.165L148.564 553.932L148.564 553.932L146.135 555.28C144.664 555.894 143.085 556.208 141.49 556.204H141.489Z" fill="#081E32" stroke="#B1DAFF" stroke-width="0.796709"/>
<path d="M206.121 171.852L217.798 163.084L214.673 177.348L214.573 177.806L215.04 177.772L229.603 176.709L219.263 187.019L218.931 187.35L219.343 187.574L232.169 194.553L217.896 197.636L217.438 197.735L217.663 198.147L224.68 210.952L211.006 205.829L210.567 205.665L210.534 206.133L209.514 220.699L200.78 208.997L200.5 208.621L200.22 208.997L191.486 220.699L190.466 206.133L190.433 205.665L189.994 205.829L176.32 210.952L183.337 198.147L183.562 197.735L183.104 197.636L168.831 194.553L181.657 187.574L182.069 187.35L181.737 187.019L171.397 176.709L185.96 177.772L186.427 177.806L186.327 177.348L183.202 163.084L194.879 171.852L195.254 172.133L195.417 171.694L200.5 158.005L205.583 171.694L205.746 172.133L206.121 171.852Z" stroke="#B1DAFF" stroke-width="0.7"/>
<path d="M197.91 184.534C197.91 184.534 199.559 192.034 205.834 193.321" stroke="#B1DAFF" stroke-width="0.7" stroke-linecap="round" stroke-linejoin="round"/>
<path d="M193.77 188.925C193.77 188.925 195.313 196.535 201.872 197.858" stroke="#B1DAFF" stroke-width="0.7" stroke-linecap="round" stroke-linejoin="round"/>
<path d="M321.036 395.749V378.095C321.036 378.095 318.417 364.311 330.882 365.296C330.232 366.28 349.343 365.296 349.343 365.296L363.709 429.373L390.352 423.101L372.403 340.031H320.81C320.81 340.031 292.818 341.33 292.818 365.296C292.158 364.971 292.818 399.107 292.818 399.107L321.036 395.749Z" fill="#274773"/>
<path d="M298.727 404.03H317.099C317.099 404.03 320.388 419.862 320.053 429.629C320.053 429.915 283.623 429.629 283.623 429.629C281.854 429.543 280.185 428.779 278.964 427.496C277.743 426.213 277.063 424.509 277.065 422.737V420.049C277.064 418.986 277.288 417.934 277.722 416.963C278.155 415.992 278.79 415.124 279.583 414.415C280.376 413.707 281.31 413.174 282.324 412.852C283.337 412.53 284.407 412.426 285.464 412.547L300.036 414.211L298.727 404.03Z" fill="#0F2A43"/>
<path d="M370.602 429.796L372.404 441.277L358.491 439.199C357.348 439.029 356.181 439.108 355.071 439.43C353.96 439.752 352.932 440.309 352.057 441.064C351.181 441.819 350.478 442.754 349.997 443.805C349.515 444.856 349.266 445.999 349.266 447.155C349.264 448.17 349.466 449.175 349.861 450.11C350.256 451.045 350.835 451.891 351.563 452.597C352.292 453.304 353.155 453.856 354.102 454.222C355.048 454.588 356.059 454.759 357.073 454.726L393.897 453.584L390.353 429.796H370.602Z" fill="#0F2A43"/>
<path d="M345.249 357.311C345.249 357.311 354.317 387.459 356.168 395.71" stroke="#B1DAFF" stroke-width="0.796709" stroke-linecap="round" stroke-linejoin="round"/>
<path d="M288.142 362.48C288.142 362.48 298.726 369.618 306.849 360.264" stroke="#B1DAFF" stroke-width="0.796709" stroke-linecap="round" stroke-linejoin="round"/>
<path d="M297.496 405.556C297.496 405.556 297.25 390.176 286.665 394.666C286.911 394.971 282.727 396.419 297.496 405.556Z" stroke="#B1DAFF" stroke-width="0.796709" stroke-linecap="round" stroke-linejoin="round"/>
<path d="M297.497 408.234C297.497 408.234 284.126 405.162 286.292 402.11C288.458 399.057 293.558 400.633 297.497 408.234Z" stroke="#B1DAFF" stroke-width="0.796709" stroke-linecap="round" stroke-linejoin="round"/>
<path d="M371.587 436.059C371.587 436.059 360.264 421.92 357.064 429.374C353.864 436.827 371.587 436.059 371.587 436.059Z" stroke="#B1DAFF" stroke-width="0.796709" stroke-linecap="round" stroke-linejoin="round"/>
<path d="M349.266 433.617H366.417" stroke="#B1DAFF" stroke-width="0.796709" stroke-linecap="round" stroke-linejoin="round"/>
<path d="M390.352 424.864L362.99 426.173" stroke="#B1DAFF" stroke-width="0.796709" stroke-linecap="round" stroke-linejoin="round"/>
<path d="M284.942 277.833L310.542 276.061C310.542 276.061 318.241 300.066 345.82 309.872C346.637 310.492 387.99 309.872 426.065 340.03C426.724 339.371 412.94 365.295 412.94 365.295C412.94 365.295 385.706 339.046 373.399 331.327L372.414 340.03H335.767C335.767 340.03 337.362 336.092 335.767 324.927C335.482 325.586 294.355 308.228 284.942 277.833Z" fill="#719374"/>
<path d="M423.402 357.286C428.124 351.287 429.881 344.794 427.326 342.782C424.771 340.771 418.872 344.003 414.149 350.002C409.427 356.001 407.67 362.495 410.225 364.506C412.78 366.518 418.68 363.285 423.402 357.286Z" stroke="#B1DAFF" stroke-width="0.796709" stroke-linecap="round" stroke-linejoin="round" stroke-dasharray="4.78 4.78"/>
<path d="M315.957 311.743C318.1 307.087 321.862 303.368 326.541 301.277" stroke="#B1DAFF" stroke-width="0.796709" stroke-linecap="round" stroke-linejoin="round"/>
<path d="M324.817 311.743C325.747 308.37 327.731 305.382 330.479 303.217" stroke="#B1DAFF" stroke-width="0.796709" stroke-linecap="round" stroke-linejoin="round"/>
<path d="M336.426 331.741C336.426 331.741 333.286 314.943 345.288 313.033" stroke="#B1DAFF" stroke-width="0.796709" stroke-linecap="round" stroke-linejoin="round"/>
<path d="M362.232 313.003C362.232 313.003 347.709 313.22 357.555 324.927C367.401 331.327 378.478 335.895 385.616 343.28" stroke="#B1DAFF" stroke-width="0.796709" stroke-linecap="round" stroke-linejoin="round"/>
<path d="M412.694 355.833C412.694 355.833 418.198 372.129 440.499 369.933C441.164 369.863 441.779 369.552 442.229 369.058C442.68 368.564 442.933 367.923 442.941 367.255V367.186C442.946 366.587 442.727 366.008 442.326 365.563C441.925 365.118 441.371 364.84 440.775 364.783C437.889 364.454 434.967 364.628 432.14 365.295C432.14 365.295 445.462 360.875 452.403 369.913C452.453 369.981 452.518 370.036 452.594 370.074C452.669 370.111 452.752 370.131 452.836 370.13H455.367C455.578 370.129 455.787 370.077 455.974 369.979C456.161 369.88 456.321 369.737 456.441 369.563C456.561 369.389 456.637 369.188 456.663 368.978C456.688 368.768 456.662 368.555 456.588 368.358V368.358C455.662 365.965 452.649 361.81 442.725 360.264" stroke="#B1DAFF" stroke-width="0.796709" stroke-linecap="round" stroke-linejoin="round"/>
<path d="M422.589 346.992C422.589 346.992 424.755 350.664 440.509 350.93C454.815 351.157 457.798 352.801 461.894 359.368C462.081 359.668 462.204 360.003 462.255 360.352C462.307 360.702 462.286 361.058 462.193 361.399C462.101 361.74 461.939 362.058 461.718 362.334C461.497 362.61 461.222 362.837 460.909 363.001C460.909 363.001 454.106 354.868 442.862 355.853" stroke="#B1DAFF" stroke-width="0.796709" stroke-linecap="round" stroke-linejoin="round"/>
<path d="M352.338 309.873C355.894 309.873 358.777 306.143 358.777 301.543C358.777 296.943 355.894 293.213 352.338 293.213C348.781 293.213 345.898 296.943 345.898 301.543C345.898 306.143 348.781 309.873 352.338 309.873Z" stroke="#B1DAFF" stroke-width="0.796709" stroke-linecap="round" stroke-linejoin="round"/>
<path d="M362.716 308.209C364.891 308.209 366.654 306.278 366.654 303.896C366.654 301.514 364.891 299.583 362.716 299.583C360.541 299.583 358.777 301.514 358.777 303.896C358.777 306.278 360.541 308.209 362.716 308.209Z" stroke="#B1DAFF" stroke-width="0.796709" stroke-linecap="round" stroke-linejoin="round"/>
<path d="M345.248 299.584C346.195 299.584 346.962 298.817 346.962 297.871C346.962 296.925 346.195 296.158 345.248 296.158C344.302 296.158 343.535 296.925 343.535 297.871C343.535 298.817 344.302 299.584 345.248 299.584Z" stroke="#B1DAFF" stroke-width="0.796709" stroke-linecap="round" stroke-linejoin="round"/>
<path d="M349.916 293.823C349.916 293.823 351.354 301.867 358.777 303.896" stroke="#B1DAFF" stroke-width="0.796709" stroke-linecap="round" stroke-linejoin="round"/>
<path d="M306.475 279.163C306.475 279.163 304.584 250.324 289.49 240.655C289.124 240.426 288.695 240.316 288.264 240.339C287.832 240.362 287.418 240.517 287.078 240.783V240.783C286.637 241.125 286.35 241.629 286.28 242.183C286.21 242.736 286.362 243.295 286.704 243.737L292.149 250.895C292.149 250.895 286.389 242.683 282.943 239.306C282.749 239.112 282.519 238.958 282.265 238.853C282.012 238.748 281.74 238.694 281.466 238.694C281.191 238.694 280.92 238.748 280.666 238.853C280.413 238.958 280.183 239.112 279.989 239.306L279.369 239.907C279.171 240.097 279.012 240.324 278.902 240.575C278.792 240.826 278.732 241.097 278.727 241.371C278.721 241.646 278.77 241.918 278.87 242.174C278.97 242.43 279.119 242.663 279.309 242.861C281.357 244.997 284.932 248.847 285.798 250.629C285.867 250.629 279.703 243.254 276.789 239.798C276.6 239.574 276.366 239.392 276.102 239.263C275.838 239.135 275.551 239.063 275.257 239.053C274.964 239.043 274.672 239.094 274.4 239.204C274.128 239.314 273.882 239.479 273.678 239.69L273.559 239.808C273.365 240.002 273.211 240.232 273.106 240.486C273.001 240.739 272.947 241.011 272.947 241.285C272.947 241.559 273.001 241.831 273.106 242.085C273.211 242.338 273.365 242.568 273.559 242.762C275.381 244.682 278.482 248.118 279.467 250.54C277.281 245.775 268.302 237.327 264.678 234.019C264.478 233.83 264.242 233.684 263.985 233.587C263.728 233.49 263.454 233.446 263.179 233.456C262.904 233.466 262.634 233.531 262.384 233.646C262.135 233.761 261.91 233.925 261.725 234.127L260.582 235.338C260.382 235.548 260.227 235.797 260.127 236.07C260.028 236.342 259.986 236.633 260.004 236.922C260.023 237.212 260.101 237.495 260.235 237.752C260.368 238.01 260.554 238.238 260.779 238.42C266.598 243.048 280.018 260.455 280.018 260.455C276.473 257.393 273.38 253.842 270.832 249.91C270.68 249.674 270.482 249.47 270.249 249.312C270.017 249.154 269.755 249.045 269.479 248.991C269.203 248.936 268.919 248.938 268.644 248.997C268.369 249.055 268.109 249.168 267.878 249.329L266.116 250.54C265.677 250.826 265.362 251.266 265.233 251.773C265.103 252.28 265.169 252.817 265.417 253.278C268.448 258.715 272.636 263.42 277.685 267.062C288.191 272.29 290.485 281.132 290.485 281.132" stroke="#B1DAFF" stroke-width="0.796709" stroke-linecap="round" stroke-linejoin="round"/>
<path d="M120.532 64.2677C120.532 64.2677 103.214 47.7479 86.1615 58.8198C83.3314 60.6671 80.8941 63.0542 78.9894 65.8442C73.9242 73.1766 68.7488 86.0009 74.5848 98.2826C77.0266 103.385 81.0253 107.582 86.0061 110.271C90.9868 112.96 96.693 114.003 102.304 113.248C109.036 112.309 115.738 108.768 118.572 99.6464C120.532 86.6168 111.121 85.6489 106.701 90.6936C101.064 97.1314 101.688 106.451 107.318 114.48C113.594 123.433 123.659 135.956 154.858 136.264" stroke="#B1DAFF" stroke-width="0.796709" stroke-linecap="round" stroke-linejoin="round"/>
<path d="M260.624 26.7239C260.624 26.7239 197.789 17.995 164.778 99.8442" stroke="#B1DAFF" stroke-width="0.779357" stroke-linecap="round" stroke-linejoin="round"/>
<path d="M268.037 1.5606C268.037 1.5606 206.166 -8.06437 164.777 52.437" stroke="#B1DAFF" stroke-width="0.779357" stroke-linecap="round" stroke-linejoin="round"/>
<g clip-path="url(#clip0_645_239)">
<path d="M218.586 137.648H213.688V138.28H218.586V137.648Z" fill="white"/>
<path d="M209.55 129.564V134.263H210.208V129.564H209.55Z" fill="white"/>
<path d="M209.55 141.302V146H210.208V141.302H209.55Z" fill="white"/>
<path d="M206.021 137.648H201.123V138.28H206.021V137.648Z" fill="white"/>
</g>
<defs>
<clipPath id="clip0_645_239">
<rect width="17.4633" height="16.436" fill="white" transform="translate(201.123 129.564)"/>
</clipPath>
</defs>
</svg>
