<svg width="341" height="516" viewBox="0 0 341 516" fill="none" xmlns="http://www.w3.org/2000/svg">
<path d="M186.663 545.442L309.237 6.77659" stroke="#A1AECB" stroke-linecap="round" stroke-linejoin="round"/>
<path d="M211.096 548.793L328.384 12.5659" stroke="#A1AECB" stroke-linecap="round" stroke-linejoin="round"/>
<path d="M293.606 90.8101L378.1 106.831" stroke="#A1AECB" stroke-linecap="round" stroke-linejoin="round"/>
<path d="M307.847 144.336L364.35 155.483" stroke="#A1AECB" stroke-linecap="round" stroke-linejoin="round"/>
<path d="M314.399 165.657L371.435 173.368" stroke="#A1AECB" stroke-linecap="round" stroke-linejoin="round"/>
<path d="M273.737 212.94L359.337 227.703" stroke="#A1AECB" stroke-linecap="round" stroke-linejoin="round"/>
<path d="M269.741 229.598L357.182 246.659" stroke="#A1AECB" stroke-linecap="round" stroke-linejoin="round"/>
<path d="M255.102 287.584L338.828 302.482" stroke="#A1AECB" stroke-linecap="round" stroke-linejoin="round"/>
<path d="M249.819 305.178L331.641 318.823" stroke="#A1AECB" stroke-linecap="round" stroke-linejoin="round"/>
<path d="M241.706 356.855L322.089 372.431" stroke="#A1AECB" stroke-linecap="round" stroke-linejoin="round"/>
<path d="M248.84 376.198L320.517 389.424" stroke="#A1AECB" stroke-linecap="round" stroke-linejoin="round"/>
<path d="M225.794 433.148L306.902 449.647" stroke="#A1AECB" stroke-linecap="round" stroke-linejoin="round"/>
<path d="M227.028 452.364L303.803 467.216" stroke="#A1AECB" stroke-linecap="round" stroke-linejoin="round"/>
<path d="M280.406 538.49L395.024 24.6831" stroke="#A1AECB" stroke-linecap="round" stroke-linejoin="round"/>
<path d="M304.363 524.111L394.451 128.376" stroke="#A1AECB" stroke-linecap="round" stroke-linejoin="round"/>
<g clip-path="url(#clip0_645_138)">
<path d="M0.482422 376.898L60.2034 381.383" stroke="#A0E7FF" stroke-width="1.01991" stroke-linecap="round" stroke-linejoin="round"/>
<path d="M21.9912 341.046L57.3132 355.769" stroke="#A0E7FF" stroke-width="1.01991" stroke-linecap="round" stroke-linejoin="round"/>
<path d="M34.1963 418.194L58.9227 403.788" stroke="#A0E7FF" stroke-width="1.01991" stroke-linecap="round" stroke-linejoin="round"/>
<path d="M78.3885 348.413H147.742C149.234 348.416 150.665 349.005 151.724 350.053C152.782 351.102 153.383 352.524 153.396 354.012V398.353H72.7246V354.012C72.7373 352.523 73.3396 351.099 74.4004 350.05C75.4613 349.001 76.8946 348.413 78.3885 348.413V348.413Z" stroke="#A0E7FF" stroke-width="1.01991" stroke-linecap="round" stroke-linejoin="round"/>
<rect x="78.9054" y="355.386" width="68.0904" height="36.0479" rx="2.00266" fill="#0C1E2F" stroke="#A0E7FF" stroke-width="0.801063"/>
<path d="M112.636 376.297V378.858C112.636 379.365 112.486 379.86 112.205 380.281C111.923 380.702 111.523 381.03 111.055 381.224C110.587 381.418 110.073 381.469 109.576 381.37C109.079 381.271 108.623 381.027 108.265 380.669C107.907 380.311 107.663 379.855 107.564 379.358C107.465 378.861 107.516 378.346 107.71 377.878C107.903 377.41 108.232 377.01 108.653 376.729C109.074 376.448 109.569 376.297 110.075 376.297L112.636 376.297Z" stroke="#A0E7FF" stroke-width="0.856188" stroke-linecap="round" stroke-linejoin="round"/>
<path d="M115.196 376.297C116.61 376.297 117.756 375.15 117.756 373.736C117.756 372.322 116.61 371.175 115.196 371.175C113.781 371.175 112.635 372.322 112.635 373.736C112.635 375.15 113.781 376.297 115.196 376.297Z" stroke="#A0E7FF" stroke-width="0.856188" stroke-linecap="round" stroke-linejoin="round"/>
<path d="M112.636 376.297V371.175H110.075C109.396 371.175 108.745 371.445 108.265 371.925C107.784 372.406 107.515 373.057 107.515 373.736C107.515 374.415 107.784 375.067 108.265 375.547C108.745 376.027 109.396 376.297 110.075 376.297L112.636 376.297Z" stroke="#A0E7FF" stroke-width="0.856188" stroke-linecap="round" stroke-linejoin="round"/>
<path d="M112.637 371.176V366.054H115.197C115.877 366.054 116.528 366.324 117.008 366.804C117.488 367.284 117.758 367.936 117.758 368.615C117.758 369.294 117.488 369.945 117.008 370.426C116.528 370.906 115.877 371.176 115.197 371.176L112.637 371.176Z" stroke="#A0E7FF" stroke-width="0.856188" stroke-linecap="round" stroke-linejoin="round"/>
<path d="M112.635 371.176V366.054H110.074C109.395 366.054 108.744 366.324 108.264 366.804C107.783 367.284 107.514 367.936 107.514 368.615C107.514 369.294 107.783 369.945 108.264 370.426C108.744 370.906 109.395 371.176 110.074 371.176L112.635 371.176Z" stroke="#A0E7FF" stroke-width="0.856188" stroke-linecap="round" stroke-linejoin="round"/>
<path d="M153.396 398.353V418.195" stroke="#A0E7FF" stroke-width="1.01991" stroke-linecap="round" stroke-linejoin="round"/>
<path d="M72.7246 398.353V420.759" stroke="#A0E7FF" stroke-width="1.01991" stroke-linecap="round" stroke-linejoin="round"/>
<path d="M102.903 403.788H105.793" stroke="#A0E7FF" stroke-width="1.01991" stroke-linecap="round" stroke-linejoin="round"/>
<path d="M111.438 403.788H142.463" stroke="#A0E7FF" stroke-width="1.01991" stroke-linecap="round" stroke-linejoin="round" stroke-dasharray="5.58 5.58"/>
<path d="M145.287 403.788H148.177" stroke="#A0E7FF" stroke-width="1.01991" stroke-linecap="round" stroke-linejoin="round"/>
<path d="M120.405 437.201H153.367C153.367 437.201 163.241 453.527 173.355 453.527C177.956 454.471 182.724 454.213 187.196 452.78C191.668 451.346 195.693 448.785 198.88 445.345C203.215 440.543 226.333 424.216 243.671 439.582C248.969 445.345 277.866 484.509 277.866 484.509L256.675 509.325L237.41 487.429L213.329 460.711C213.329 460.711 197.917 475.116 171.428 475.116C169.771 475.424 127.687 479.899 120.405 437.201Z" fill="#5A7D9F"/>
<path d="M77.8597 477.738C77.8597 477.738 170.909 479.658 187.611 473.32C194.605 471.265 205.007 467.5 213.359 460.777H241.293C241.293 460.777 240.647 487.668 236.794 492.787C236.794 492.787 232.624 511.034 207.897 512.638C207.897 512.638 179.328 517.113 72.7257 515.193C72.4078 515.519 97.4521 486.708 77.8597 477.738Z" fill="#081E32"/>
<path d="M72.4087 515.519C72.4087 515.519 50.8899 502.708 77.8606 477.738C77.8606 477.738 100.015 482.223 72.4087 515.519Z" fill="#2E587E"/>
<path d="M17.1748 471.303C17.1748 471.303 22.9542 472.619 30.0244 464.936C32.9142 467.817 37.7304 491.98 52.179 488.225C52.179 488.302 57.9584 512.311 57.9584 512.311H44.473C44.473 512.311 44.4731 497.589 24.8807 496.628C25.2082 497.589 18.138 473.176 17.1748 471.303Z" fill="#2E587E"/>
<path d="M92.9531 466.856C92.9531 466.856 99.3779 462.054 101.304 457.896C104.83 459.817 114.144 472.215 117.997 471.341C120.527 470.707 122.998 469.862 125.385 468.816L131.483 477.776H102.268L92.9531 466.856Z" fill="#2E587E"/>
<path d="M27.7709 464.936C24.727 456.84 14.6804 455.044 9.46931 454.669C7.54283 454.535 6.26172 454.583 6.26172 454.583L22.9547 512.475L44.4735 512.331C44.4735 512.331 37.7308 493.469 22.6368 499.01" stroke="#A0E7FF" stroke-width="1.01991" stroke-linecap="round" stroke-linejoin="round"/>
<path d="M27.7713 515.52L9.46973 454.67" stroke="#A0E7FF" stroke-width="1.01991" stroke-linecap="round" stroke-linejoin="round"/>
<path d="M42.5465 491.404C42.5465 491.404 30.6601 477.21 38.6936 467.817C46.727 458.425 42.5465 488.629 42.5465 488.629C42.5465 488.629 65.9822 471.448 56.3498 464.936C46.7174 458.425 46.072 477.604 46.072 477.604" stroke="#A0E7FF" stroke-width="1.01991" stroke-linecap="round" stroke-linejoin="round"/>
<path d="M49.9248 488.628L56.6675 512.455H59.8847L54.9048 488.628H49.9248Z" stroke="#A0E7FF" stroke-width="1.01991" stroke-linecap="round" stroke-linejoin="round"/>
<path d="M85.1791 491.404H55.4824" stroke="#A0E7FF" stroke-width="1.01991" stroke-linecap="round" stroke-linejoin="round"/>
<path d="M78.8324 507.011H57.959" stroke="#A0E7FF" stroke-width="1.01991" stroke-linecap="round" stroke-linejoin="round"/>
<path d="M95.8429 477.969L78.832 456.504L81.7121 454.67L100.341 477.998" stroke="#A0E7FF" stroke-width="1.01991" stroke-linecap="round" stroke-linejoin="round"/>
<path d="M130.597 477.997L124.153 469.296H127.371L135.019 477.997" stroke="#A0E7FF" stroke-width="1.01991" stroke-linecap="round" stroke-linejoin="round"/>
<path d="M81.7119 454.669C81.7119 454.669 93.2708 450.318 101.304 457.896" stroke="#A0E7FF" stroke-width="1.01991" stroke-linecap="round" stroke-linejoin="round"/>
<path d="M121.851 467.817C121.851 467.817 123.46 449.464 116.071 450.425C108.481 451.414 120.406 469.258 120.406 469.258C120.406 469.258 117.69 451.01 125.058 451.971C132.427 452.931 121.851 467.817 121.851 467.817Z" stroke="#A0E7FF" stroke-width="1.01991" stroke-linecap="round" stroke-linejoin="round"/>
<path d="M127.369 469.258L135.017 466.301C135.017 466.301 148.503 482.118 178.681 477.46C208.859 472.802 238.084 441.244 213.358 436.058" stroke="#A0E7FF" stroke-width="1.01991" stroke-linecap="round" stroke-linejoin="round"/>
<path d="M237.121 433.205C237.121 433.205 244.5 445.133 241.292 457.214" stroke="#A0E7FF" stroke-width="1.01991" stroke-linecap="round" stroke-linejoin="round"/>
<path d="M137.58 437.201H151.393H157.009" stroke="#A0E7FF" stroke-width="1.01991" stroke-linecap="round" stroke-linejoin="round"/>
<path d="M124.152 438.256C124.152 438.256 123.131 428.979 101.304 430.256C79.4773 431.534 75.9326 425.666 72.725 420.758C69.5174 415.851 73.0429 415.101 76.0963 415.313C79.1498 415.524 82.5308 423.217 100.341 424.177" stroke="#A0E7FF" stroke-width="1.01991" stroke-linecap="round" stroke-linejoin="round"/>
<path d="M129.585 420.758C129.585 420.758 126.349 418.3 105.157 420.758C92.6351 418.895 84.2453 413.978 86.2681 408.273C86.8557 407.851 75.4317 404.912 76.0963 415.313" stroke="#A0E7FF" stroke-width="1.01991" stroke-linecap="round" stroke-linejoin="round"/>
<path d="M95.5543 418.454C95.5543 418.454 98.444 412.538 86.2687 408.274C83.3789 407.246 92.6357 405.086 96.8643 407.006C101.093 408.927 115.773 412.653 131.541 409.551C147.309 406.449 151.451 437.201 151.451 437.201" stroke="#A0E7FF" stroke-width="1.01991" stroke-linecap="round" stroke-linejoin="round"/>
<path d="M86.8657 421.517C86.8657 421.517 86.1722 412.73 76.0967 413.71" stroke="#A0E7FF" stroke-width="1.01991" stroke-linecap="round" stroke-linejoin="round"/>
<path d="M78.6686 426.77C78.6686 426.77 81.3753 419.212 71.6562 416.648" stroke="#A0E7FF" stroke-width="1.01991" stroke-linecap="round" stroke-linejoin="round"/>
<path d="M224.359 429.815C230.142 429.815 234.83 425.141 234.83 419.375C234.83 413.61 230.142 408.936 224.359 408.936C218.576 408.936 213.889 413.61 213.889 419.375C213.889 425.141 218.576 429.815 224.359 429.815Z" stroke="#A0E7FF" stroke-width="1.01991" stroke-linecap="round" stroke-linejoin="round"/>
<path d="M208.946 411.452C208.946 411.452 214.726 417.214 233.75 419.375" stroke="#A0E7FF" stroke-width="1.01991" stroke-linecap="round" stroke-linejoin="round"/>
<path d="M212.559 421.536C213.485 421.536 214.235 420.788 214.235 419.865C214.235 418.942 213.485 418.194 212.559 418.194C211.633 418.194 210.883 418.942 210.883 419.865C210.883 420.788 211.633 421.536 212.559 421.536Z" stroke="#A0E7FF" stroke-width="1.01991" stroke-linecap="round" stroke-linejoin="round"/>
<path d="M270.354 482.281C270.354 482.281 276.133 488.523 297.016 487.563C317.899 486.602 323.149 495.188 323.149 495.188" stroke="#A0E7FF" stroke-width="1.01991" stroke-linecap="round" stroke-linejoin="round"/>
<path d="M298.605 493.162C298.605 493.162 317.707 494.285 320.596 501.162" stroke="#A0E7FF" stroke-width="1.01991" stroke-linecap="round" stroke-linejoin="round"/>
<path d="M295.233 498.126C295.233 498.126 316.425 504.494 318.669 509.392" stroke="#A0E7FF" stroke-width="1.01991" stroke-linecap="round" stroke-linejoin="round"/>
<path d="M278.859 504.523C278.859 504.523 299.338 502.928 308.161 508.767C309.204 509.452 310.418 509.834 311.666 509.872C312.915 509.909 314.149 509.6 315.231 508.979L317.35 507.788" stroke="#A0E7FF" stroke-width="1.01991" stroke-linecap="round" stroke-linejoin="round"/>
<path d="M253.496 501.162C253.496 501.162 255.904 507.404 271.47 512.206C284.801 512.686 292.902 515.414 296.746 510.612C299.25 507.884 296.62 505.003 294.415 504.792" stroke="#A0E7FF" stroke-width="1.01991" stroke-linecap="round" stroke-linejoin="round"/>
<path d="M284.319 498.126C284.319 498.126 287.045 495.245 288.808 495.168" stroke="#A0E7FF" stroke-width="1.01991" stroke-linecap="round" stroke-linejoin="round"/>
</g>
<g clip-path="url(#clip1_645_138)">
<path d="M230.602 312.385C221.598 296.791 201.716 291.414 186.193 300.376C170.67 309.338 165.385 329.246 174.388 344.84C183.392 360.435 203.274 365.811 218.797 356.849C234.32 347.887 239.605 327.98 230.602 312.385Z" fill="#10266B"/>
<path d="M186.953 330.104C186.953 330.104 162.43 269.686 72.6072 282.365" stroke="#6CF0FF" stroke-width="0.801063" stroke-linecap="round" stroke-linejoin="round"/>
<path d="M213.161 323.771C213.161 323.771 189.932 263.75 114.806 258.001" stroke="#6CF0FF" stroke-width="0.801063" stroke-linecap="round" stroke-linejoin="round"/>
</g>
<path d="M211.548 81.368C211.548 81.368 257.498 18.498 351.258 55.658C351.258 55.658 338.048 63.118 346.548 76.988C346.548 77.868 278.548 46.868 225.048 99.868C225.048 99.368 211.548 81.368 211.548 81.368Z" fill="#836E9F"/>
<path d="M193.798 192.368C193.798 192.368 193.548 172.868 211.548 180.868C211.548 181.368 232.548 202.868 237.548 192.368C237.548 191.868 242.048 203.368 231.548 207.368C218.221 204.493 205.464 199.424 193.798 192.368Z" fill="#2E587E"/>
<path d="M356.977 68.1336C358.882 62.04 357.589 56.2131 354.089 55.1189C350.588 54.0247 346.207 58.0776 344.302 64.1712C342.397 70.2648 343.69 76.0916 347.19 77.1858C350.69 78.28 355.072 74.2272 356.977 68.1336Z" fill="#C8E4E7"/>
<path d="M266.708 73.498C270.838 72.238 285.258 68.218 296.568 69.568C297.147 69.6353 297.692 69.8798 298.127 70.2683C298.562 70.6567 298.866 71.17 298.998 71.738L324.678 179.278C324.797 179.801 324.767 180.346 324.59 180.852C324.413 181.358 324.097 181.804 323.678 182.138C320.448 184.768 310.858 190.308 289.678 187.138C289.055 187.042 288.48 186.745 288.041 186.292C287.602 185.839 287.324 185.254 287.248 184.628C285.798 172.028 278.508 108.628 278.988 112.838C279.538 117.558 250.988 178.838 250.488 188.078C250.978 188.818 229.608 185.658 218.338 168.078C218.077 167.659 217.93 167.179 217.913 166.686C217.895 166.193 218.008 165.704 218.238 165.268C226.078 150.268 260.238 84.068 264.948 74.918C265.129 74.5737 265.379 74.2702 265.681 74.026C265.984 73.7817 266.333 73.6021 266.708 73.498Z" fill="#081E32"/>
<path d="M254.068 94.438C254.068 94.438 267.498 75.088 268.618 63.918" stroke="#A0E7FF" stroke-linecap="round" stroke-linejoin="round"/>
<path d="M237.178 127.148C237.178 127.148 246.698 137.258 256.178 131.948" stroke="#A0E7FF" stroke-linecap="round" stroke-linejoin="round"/>
<path d="M271.548 214.868C271.548 214.868 261.258 200.868 281.408 199.368C282.548 200.368 313.048 202.818 313.048 197.368C313.048 197.368 316.048 194.228 315.548 200.228C315.548 200.228 316.548 212.228 313.048 212.558C313.388 213.028 292.548 217.498 271.548 214.868Z" fill="#2E587E"/>
<path d="M280.658 127.148C277.638 111.28 275.514 95.2547 274.298 79.1479" stroke="#A0E7FF" stroke-linecap="round" stroke-linejoin="round"/>
<path d="M212.258 84.978C212.258 84.978 203.718 91.758 198.498 89.258C195.578 89.668 181.498 93.258 176.788 99.258C176.144 100.101 175.794 101.132 175.794 102.193C175.794 103.254 176.144 104.285 176.788 105.128V105.128C177.106 105.366 177.477 105.523 177.87 105.584C178.262 105.645 178.663 105.609 179.038 105.478L192.498 95.738L176.138 109.258C175.821 109.52 175.558 109.842 175.365 110.205C175.172 110.568 175.053 110.966 175.014 111.376C174.975 111.786 175.017 112.199 175.138 112.592C175.259 112.985 175.456 113.351 175.718 113.668V113.668C176.127 114.16 176.706 114.479 177.34 114.563C177.974 114.646 178.616 114.487 179.138 114.118L198.718 100.228L179.898 115.498C179.67 115.679 179.487 115.911 179.363 116.175C179.24 116.44 179.181 116.729 179.19 117.021C179.198 117.312 179.275 117.598 179.414 117.854C179.553 118.111 179.749 118.331 179.988 118.498L180.398 118.798C180.71 119.023 181.084 119.143 181.468 119.143C181.853 119.143 182.227 119.023 182.538 118.798L200.718 105.568L186.988 117.348C186.716 117.582 186.507 117.882 186.381 118.218C186.255 118.554 186.215 118.917 186.266 119.273C186.317 119.628 186.456 119.965 186.672 120.253C186.887 120.541 187.171 120.769 187.498 120.918V120.918C187.872 121.094 188.288 121.161 188.699 121.112C189.109 121.062 189.497 120.898 189.818 120.638L206.968 106.758L199.968 118.188C199.723 118.573 199.574 119.012 199.533 119.467C199.493 119.922 199.562 120.38 199.736 120.802C199.909 121.225 200.182 121.599 200.53 121.894C200.879 122.189 201.293 122.396 201.738 122.498C202.451 122.677 203.198 122.67 203.907 122.477C204.616 122.284 205.264 121.913 205.788 121.398C209.639 117.493 212.695 112.877 214.788 107.808C218.928 97.808 222.928 94.488 222.928 94.488" stroke="#A0E7FF" stroke-linecap="round" stroke-linejoin="round"/>
<path d="M281.138 41.3182C284.91 41.3182 287.968 38.2603 287.968 34.4882C287.968 30.7161 284.91 27.6582 281.138 27.6582C277.366 27.6582 274.308 30.7161 274.308 34.4882C274.308 38.2603 277.366 41.3182 281.138 41.3182Z" stroke="#A0E7FF" stroke-linecap="round" stroke-linejoin="round"/>
<path d="M284.159 28.3682C284.159 28.3682 279.549 34.9182 272.889 35.9182C266.219 37.5882 264.769 45.1082 264.199 47.6182C263.819 49.3082 262.679 54.4682 268.619 55.3682C274.559 56.2682 275.739 49.7082 275.699 45.3682C275.659 42.1882 272.419 15.8082 284.159 28.3682Z" stroke="#A0E7FF" stroke-linecap="round" stroke-linejoin="round"/>
<path d="M220.888 190.748L227.378 178.048" stroke="#A0E7FF" stroke-linecap="round" stroke-linejoin="round"/>
<path d="M233.218 196.518L238.508 184.398" stroke="#A0E7FF" stroke-linecap="round" stroke-linejoin="round"/>
<path d="M217.968 188.198C217.968 188.198 213.968 178.868 209.548 178.938C207.888 183.588 215.718 187.498 217.968 188.198Z" stroke="#A0E7FF" stroke-linecap="round" stroke-linejoin="round"/>
<path d="M219.888 190.498C219.888 190.498 222.888 178.298 216.158 176.298C209.428 174.298 217.968 188.238 217.968 188.238" stroke="#A0E7FF" stroke-linecap="round" stroke-linejoin="round"/>
<path d="M203.498 178.948C203.498 178.948 205.588 189.378 201.268 191.778" stroke="#A0E7FF" stroke-linecap="round" stroke-linejoin="round"/>
<path d="M193.798 187.258C193.798 187.258 205.718 197.258 231.468 206.108" stroke="#A0E7FF" stroke-linecap="round" stroke-linejoin="round"/>
<path d="M190.718 190.748C190.718 190.748 208.218 203.008 229.718 209.008" stroke="#A0E7FF" stroke-linecap="round" stroke-linejoin="round"/>
<path d="M309.308 183.258L311.718 198.228" stroke="#A0E7FF" stroke-linecap="round" stroke-linejoin="round"/>
<path d="M292.479 181.758L295.219 201.658" stroke="#A0E7FF" stroke-linecap="round" stroke-linejoin="round"/>
<path d="M295.718 202.878C295.718 202.878 284.718 185.878 282.888 193.878C283.858 195.745 285.191 197.4 286.808 198.747C288.426 200.093 290.295 201.103 292.308 201.718C292.308 201.718 278.888 204.218 280.048 198.048C281.048 196.498 285.218 196.578 295.718 202.878Z" stroke="#A0E7FF" stroke-linecap="round" stroke-linejoin="round"/>
<path d="M274.979 200.498C274.979 200.498 279.909 204.708 278.979 213.968" stroke="#A0E7FF" stroke-linecap="round" stroke-linejoin="round"/>
<path d="M268.918 214.008C268.918 214.008 294.468 213.758 313.468 209.008" stroke="#A0E7FF" stroke-linecap="round" stroke-linejoin="round"/>
<path d="M268.918 218.008C268.918 218.008 295.218 219.008 313.468 214.008" stroke="#A0E7FF" stroke-linecap="round" stroke-linejoin="round"/>
<defs>
<clipPath id="clip0_645_138">
<rect width="323.63" height="175.433" fill="white" transform="translate(0 340.566)"/>
</clipPath>
<clipPath id="clip1_645_138">
<rect width="162.198" height="134.331" fill="white" transform="translate(152.965 422.633) rotate(-120)"/>
</clipPath>
</defs>
</svg>
